<svg width="24" height="24" viewBox="0 0 24 24" fill="none" xmlns="http://www.w3.org/2000/svg">
<mask id="mask0_507_531" style="mask-type:luminance" maskUnits="userSpaceOnUse" x="2" y="2" width="20" height="20">
<path d="M22 2H2V22H22V2Z" fill="white"/>
</mask>
<g mask="url(#mask0_507_531)">
<path d="M22.0227 21.5L20.8409 14.3864V2.43182C20.8182 2.20455 20.6364 2 20.3864 2H3.63637C3.38637 2 3.18182 2.20455 3.18182 2.43182V14.3864L2.00001 21.5C1.97728 21.6818 2.04546 21.8636 2.22728 21.9545C2.29546 21.9773 2.36364 22 2.45455 22H21.5909C21.7273 22 21.8409 21.9545 21.9318 21.8409C22 21.75 22.0455 21.6136 22.0227 21.5ZM4.09092 2.86364H19.9546V13.9773H4.09092V2.86364ZM2.97728 21.1364L4.02273 14.8864H20L21.0455 21.1364H2.97728Z" fill="white"/>
</g>
<path d="M13.6818 12.8864C14.9091 12.8864 16.1364 12.8864 17.3409 12.8864C17.7045 12.8864 18.0227 12.7727 18.2273 12.5455C18.4545 12.3182 18.5682 12.0227 18.5682 11.6591C18.5682 10.0227 18.5682 8.27273 18.5682 6.18182C18.5682 6.09091 18.5682 5.97727 18.5454 5.88636C18.4318 5.31818 17.9545 4.95454 17.3636 4.95454C16.5682 4.95454 15.7954 4.95454 15 4.95454H13.5227H12.0454H10.6136H9.04545C8.29545 4.95454 7.54545 4.95454 6.79545 4.95454C6.04545 4.95454 5.56818 5.45454 5.56818 6.18182C5.56818 8.06818 5.56818 9.90909 5.56818 11.6591C5.56818 12.3864 6.06818 12.8864 6.79545 12.8864C6.95454 12.8864 7.11363 12.8864 7.31818 12.8864C7.47727 12.8864 7.63636 12.8864 7.79545 12.8864C7.90909 12.8864 7.5909 12.8864 7.70454 12.8864C7.74999 12.8864 7.79545 12.8864 7.8409 12.8864C7.99999 12.8636 8.11363 12.75 8.11363 12.5682C8.11363 12.4091 8.02272 12.2727 7.86363 12.2273C7.79545 12.2045 7.72727 12.2045 7.68181 12.2045C7.5909 12.2045 7.95454 12.2045 7.88636 12.2045C7.79545 12.2045 7.68181 12.2045 7.5909 12.2045C7.49999 12.2045 7.38636 12.2045 7.29545 12.2045C7.0909 12.2045 6.93181 12.2045 6.77272 12.2045C6.43181 12.2045 6.24999 12 6.24999 11.6818C6.24999 9.90909 6.24999 8.04545 6.24999 6.15909C6.24999 5.81818 6.45454 5.63636 6.79545 5.63636C6.97727 5.63636 7.15909 5.63636 7.3409 5.63636C7.47727 5.63636 7.61363 5.63636 7.74999 5.63636C7.88636 5.63636 8.02272 5.63636 8.15909 5.63636H10.3636H12.5682C14.1818 5.63636 15.7727 5.63636 17.3864 5.63636C17.7273 5.63636 17.9318 5.81818 17.9318 6.13636C17.9318 7.79545 17.9318 9.56818 17.9318 11.7273C17.9318 11.9545 17.7954 12.1364 17.5682 12.2045C17.5 12.2273 17.4091 12.2273 17.3182 12.2273C15.5 12.2273 13.6818 12.2273 11.8636 12.2273H9.70454H9.68181H9.65909C9.61363 12.2273 9.56818 12.2273 9.49999 12.2273C9.31818 12.25 9.20454 12.3864 9.22727 12.5682C9.22727 12.75 9.3409 12.8636 9.52272 12.8864C9.56818 12.8864 9.5909 12.8864 9.61363 12.8864H11.1364C12 12.8864 12.8409 12.8864 13.6818 12.8864Z" fill="white"/>
<path d="M13.75 8.81818C13.7046 8.65909 13.5909 8.56818 13.4091 8.56818C13.0227 8.56818 12.6591 8.65909 12.2955 8.79545C11.9091 8.95455 11.5682 9.15909 11.25 9.45455C10.7273 8.63636 10 8.04545 9.06819 7.72727C8.63637 7.56818 8.18183 7.5 7.75001 7.5H7.72728C7.52274 7.5 7.38637 7.63636 7.36365 7.81818C7.36365 8 7.50001 8.15909 7.70456 8.18182C7.72728 8.18182 7.75001 8.18182 7.75001 8.18182H7.77274C8.20456 8.18182 8.63637 8.27273 9.02274 8.45455C9.81819 8.79545 10.4091 9.36364 10.8182 10.1364C10.9318 10.3636 11.0682 10.3864 11.1591 10.3864C11.2273 10.3864 11.3409 10.3636 11.4546 10.2045C11.9318 9.59091 12.5682 9.27273 13.3409 9.25C13.3864 9.25 13.4546 9.25 13.5227 9.20455C13.7046 9.11364 13.7727 8.97727 13.75 8.81818Z" fill="white"/>
<path d="M8.27273 18.5227C8.27273 18.1364 8.04545 17.9318 7.68182 17.9318C7.54545 17.9318 7.40909 17.9318 7.27273 17.9318C7.15909 17.9318 7.04545 17.9318 6.93182 17.9318C6.84091 17.9318 6.72727 17.9318 6.63636 17.9318C6.52273 17.9318 6.43182 17.9318 6.31818 17.9318C6.20455 17.9318 6.11364 17.9318 6 17.9318C5.84091 17.9318 5.70455 17.9318 5.56818 17.9318C5.22727 17.9318 5 18.1591 5 18.5C5 18.7273 5 18.9091 5 19.1136C5 19.4318 5.22727 19.6591 5.54545 19.6818C5.90909 19.6818 6.27273 19.6818 6.63636 19.6818C7 19.6818 7.36364 19.6818 7.72727 19.6818C8.04545 19.6818 8.27273 19.4545 8.27273 19.1136C8.27273 18.9318 8.27273 18.75 8.27273 18.5682V18.5227ZM7.59091 18.6136V18.9773H5.65909V18.6136H7.59091Z" fill="#C6FF00"/>
<path d="M8.25002 15.8182C8.11365 15.8182 7.97729 15.8182 7.84093 15.8182C7.72729 15.8182 7.61365 15.8182 7.52274 15.8182C7.40911 15.8182 7.3182 15.8182 7.20456 15.8182H7.18183C7.0682 15.8182 6.97729 15.8182 6.86365 15.8182C6.75002 15.8182 6.65911 15.8182 6.54547 15.8182C6.38638 15.8182 6.22729 15.8182 6.11365 15.8182C5.77274 15.8182 5.5682 16.0454 5.54547 16.3864C5.54547 16.6136 5.54547 16.8182 5.54547 17C5.54547 17.3182 5.77274 17.5454 6.0682 17.5454C6.43183 17.5454 6.8182 17.5454 7.18183 17.5454C7.54547 17.5454 7.90911 17.5454 8.27274 17.5454C8.59093 17.5454 8.79547 17.3182 8.8182 17C8.8182 16.7954 8.8182 16.5909 8.8182 16.4091C8.8182 16.0454 8.61365 15.8182 8.25002 15.8182ZM8.11365 16.5227V16.8864H6.22729V16.5227H8.11365Z" fill="white"/>
<path d="M15.8182 10.0455C16.5682 10.0455 17.1818 9.43183 17.1818 8.68183C17.1818 8.31819 17.0454 7.97728 16.7954 7.72728C16.5454 7.47728 16.2045 7.34092 15.8409 7.31819C15.0909 7.31819 14.4773 7.93183 14.4773 8.68183C14.4545 9.43183 15.0682 10.0227 15.8182 10.0455ZM16.2954 9.1591C16.1591 9.29546 16 9.36365 15.8182 9.36365C15.4545 9.36365 15.1364 9.06819 15.1364 8.70456C15.1364 8.52274 15.2045 8.34092 15.3182 8.22728C15.4545 8.09092 15.6136 8.02274 15.7954 8.02274C16.1591 8.02274 16.4773 8.31819 16.4773 8.68183C16.5 8.84092 16.4318 9.02274 16.2954 9.1591Z" fill="#C6FF00"/>
<path d="M13.0227 17.4773H17.9773C18 17.4773 18.0227 17.4773 18.0455 17.4773C18.0682 17.4773 18.0682 17.4773 18.0909 17.4773C18.1136 17.4773 18.1364 17.4773 18.1364 17.4773C18.4773 17.4545 18.6818 17.25 18.6591 16.9318C18.6591 16.7954 18.6591 16.6818 18.6364 16.5682C18.6364 16.5227 18.6364 16.4773 18.6364 16.4318C18.6136 16.0227 18.3864 15.8182 17.9546 15.8182H17.7727C16.2046 15.8182 14.5909 15.8182 13.0227 15.8182H12.9546V15.7727C12.9546 15.5909 12.7955 15.4318 12.6136 15.4318C12.4091 15.4318 12.25 15.5909 12.25 15.7727V15.8182H12.2273C11.6591 15.8182 11.0909 15.8182 10.5227 15.8182C10.3636 15.8182 10.2046 15.8182 10.0455 15.8182C9.6591 15.8182 9.43182 16.0227 9.4091 16.3864C9.4091 16.5227 9.38637 16.6364 9.38637 16.7727V16.8636C9.36364 17.2727 9.59092 17.5 10 17.5C10.1591 17.5 10.2955 17.5 10.4546 17.5C11.1364 17.5 11.6591 17.5 12.1591 17.5H12.2046V17.8409H12.1591H12.1364C11.9318 17.8409 11.7273 17.8409 11.5227 17.8409C11.3182 17.8409 11.1136 17.8409 10.9091 17.8409C10.5227 17.8409 10.2273 17.8409 9.93182 17.8409C9.56819 17.8409 9.31819 18.0682 9.29546 18.4318C9.29546 18.5682 9.27273 18.6818 9.27273 18.8182C9.27273 18.8636 9.27273 18.9091 9.27273 18.9545C9.25001 19.3864 9.47728 19.6136 9.9091 19.6136C10.2273 19.6136 10.5227 19.6136 10.8409 19.6136H11.4773H12.1136H12.1818C12.1818 19.6364 12.1818 19.6818 12.1818 19.7045C12.1818 19.8636 12.1818 20.0227 12.1591 20.2045C12.1591 20.3409 12.1591 20.5454 12.3636 20.6591L12.3864 20.6818H12.4546H12.6136H12.6364L12.6818 20.6364C12.8409 20.5454 12.9318 20.4091 12.9091 20.2045C12.9091 20.0227 12.9091 19.8636 12.9091 19.6818C12.9091 19.6364 12.9091 19.6136 12.9091 19.5682H16.4318C16.5909 19.5682 16.7727 19.5682 16.9318 19.5682C17.0909 19.5682 17.2727 19.5682 17.4318 19.5682C17.7046 19.5682 17.9318 19.5682 18.1364 19.5682C18.5227 19.5682 18.75 19.3409 18.7273 18.9545C18.7273 18.8409 18.7273 18.7045 18.7046 18.5909V18.4773C18.6818 18.0227 18.4546 17.8182 18 17.8182H15.7273H14.3636H13H12.9318V17.4773H13.0227ZM14.5455 18.5454V18.9091H12.9091V18.5454H14.5455ZM15.2955 18.9091V18.5454H18.0227L18.0455 18.9091H15.2955ZM12.9318 16.8182V16.4773H15.8864V16.8182H12.9318ZM16.6136 16.8182V16.4773H17.9773L18 16.8182H16.6136ZM12.1818 18.5454V18.9091H9.97728L10 18.5454H12.1818ZM12.2273 16.4773V16.8182H10.0682L10.0909 16.4773H12.2273Z" fill="white"/>
<path d="M12.5682 16.2727H12.5228V16.3864H12.5682V16.2727Z" fill="white"/>
<path d="M12.5682 16.2045H12.5227V16.4318H12.5682V16.2045Z" fill="white"/>
</svg>
