<svg width="24" height="24" viewBox="0 0 24 24" fill="none" xmlns="http://www.w3.org/2000/svg">
<path d="M19.1364 18.6591C18.75 18.6591 18.3864 18.7273 18.0227 18.8864C17.5227 18.0227 16.5682 17.4773 15.5682 17.4773C14.9773 17.4773 14.4091 17.6591 13.9318 18C13.7273 17.2955 13.6136 16.5682 13.6136 15.8182C13.6136 15.5682 13.4091 15.3864 13.1818 15.3864C12.9318 15.3864 12.75 15.5909 12.75 15.8182C12.75 16.7955 12.9091 17.75 13.25 18.6818C13.2045 18.75 13.1364 18.8409 13.0909 18.9091C12.9773 19.1136 13.0455 19.3864 13.25 19.5C13.4545 19.6136 13.7273 19.5455 13.8409 19.3409C14.2045 18.7273 14.8636 18.3409 15.5682 18.3409C16.3864 18.3409 17.1364 18.8636 17.4318 19.6364C17.4773 19.75 17.5682 19.8636 17.7045 19.8864C17.8409 19.9318 17.9773 19.9091 18.0682 19.8409C18.3864 19.6364 18.75 19.5227 19.1364 19.5227C20.0909 19.5227 20.8864 20.2045 21.0909 21.1136H2.90909C3.09091 20.2045 3.88636 19.5227 4.86364 19.5227C5.25 19.5227 5.61364 19.6364 5.93182 19.8409C6.04545 19.9091 6.18182 19.9318 6.29545 19.8864C6.43182 19.8409 6.52273 19.75 6.56818 19.6364C6.86364 18.8636 7.61364 18.3409 8.43182 18.3409C9.13636 18.3409 9.79546 18.7273 10.1591 19.3409C10.2727 19.5455 10.5455 19.6136 10.75 19.5C10.9545 19.3864 11.0227 19.1136 10.9091 18.9091C10.8636 18.8182 10.8182 18.75 10.75 18.6818C11.0682 17.7727 11.25 16.7955 11.25 15.8182C11.25 15.5682 11.0455 15.3864 10.8182 15.3864C10.5682 15.3864 10.3864 15.5909 10.3864 15.8182C10.3864 16.5682 10.2727 17.2955 10.0682 18C9.59091 17.6818 9.02273 17.4773 8.43182 17.4773C7.40909 17.4773 6.47727 18.0227 5.97727 18.8864C5.63636 18.75 5.25 18.6591 4.86364 18.6591C3.27273 18.6591 2 19.9545 2 21.5227V21.5682C2 21.7955 2.20455 22 2.43182 22H21.5682C21.8182 22 22 21.7955 22 21.5682V21.5227C22 19.9545 20.7273 18.6591 19.1364 18.6591Z" fill="#C6FF00"/>
<path d="M21.5682 6.84091H20.8182V6.09091C20.8182 5.84091 20.6136 5.65909 20.3864 5.65909C20.1364 5.65909 19.9546 5.86363 19.9546 6.09091V6.84091H19.2046C18.9546 6.84091 18.7727 7.04545 18.7727 7.27272C18.7727 7.5 18.9773 7.70454 19.2046 7.70454H19.9546V8.45454C19.9546 8.70454 20.1591 8.88636 20.3864 8.88636C20.6364 8.88636 20.8182 8.68182 20.8182 8.45454V7.70454H21.5682C21.8182 7.70454 22 7.5 22 7.27272C22 7.04545 21.7955 6.84091 21.5682 6.84091Z" fill="#C6FF00"/>
<path d="M4.81818 6.84091H4.06818V6.09091C4.06818 5.84091 3.86364 5.65909 3.63636 5.65909C3.40909 5.65909 3.18182 5.84091 3.18182 6.09091V6.84091H2.43182C2.18182 6.84091 2 7.04545 2 7.27272C2 7.5 2.20455 7.70454 2.43182 7.70454H3.18182V8.45454C3.18182 8.70454 3.38636 8.88636 3.61364 8.88636C3.84091 8.88636 4.04545 8.68182 4.04545 8.45454V7.70454H4.79545C5.04545 7.70454 5.22727 7.5 5.22727 7.27272C5.22727 7.04545 5.06818 6.84091 4.81818 6.84091Z" fill="#C6FF00"/>
<path d="M16.8864 11.9318C16.3864 9.95455 15.4545 9.34091 14.6818 9.25C14.6591 9.04545 14.6136 8.86364 14.5909 8.65909C14.5 8.13636 14.3409 7.63636 14.1818 7.15909C14.1818 7.13636 14.1818 7.13636 14.1591 7.11364C13.7727 6.04545 13.1818 5.04545 12.4545 4.15909V2.43182C12.4318 2.20455 12.25 2 12 2C11.75 2 11.5682 2.20455 11.5682 2.43182V4.13636C10.8409 5.02273 10.25 6.02273 9.86362 7.09091C9.86362 7.11364 9.8409 7.11364 9.8409 7.13636C9.65908 7.63636 9.52272 8.13636 9.43181 8.63636C9.38635 8.81818 9.36362 9.02273 9.3409 9.22727C8.54544 9.34091 7.63635 9.93182 7.13635 11.9091C6.81817 13.1364 6.81817 14.3409 6.81817 14.3864C6.81817 14.5682 6.93181 14.7273 7.0909 14.7955C7.13635 14.8182 7.20453 14.8182 7.24999 14.8182C7.36363 14.8182 7.47726 14.7727 7.56817 14.6818C7.56817 14.6818 8.45453 13.8182 9.72726 13.6591C9.74999 13.7045 9.74999 13.7273 9.77272 13.7727L10.4091 15.7045C10.4773 15.8864 10.6364 16 10.8182 16H13.2045C13.3864 16 13.5682 15.8864 13.6136 15.7045L14.25 13.7727C14.2727 13.7273 14.2727 13.7045 14.2954 13.6591C15.5909 13.8409 16.4545 14.6818 16.4545 14.6818C16.5454 14.7727 16.6591 14.8182 16.7727 14.8182C16.8182 14.8182 16.8864 14.8182 16.9318 14.7955C17.0909 14.7273 17.2045 14.5682 17.2045 14.3864C17.2045 14.3636 17.2045 13.1591 16.8864 11.9318ZM10.3636 12.7955C9.95453 11.1136 10.0454 9.34091 10.5682 7.72727H13.4091C13.9318 9.36364 14.0227 11.1136 13.6136 12.7955H10.3636ZM12 5C12.4318 5.56818 12.7954 6.20455 13.0909 6.84091H10.9091C11.2045 6.18182 11.5682 5.56818 12 5ZM7.72726 13.5C7.8409 12.3636 8.20453 10.5227 9.22726 10.1591C9.18181 11.0682 9.27272 11.9773 9.47726 12.8409C8.77272 12.9545 8.18181 13.25 7.72726 13.5ZM12.8864 15.1818H11.1364L10.6364 13.6818H13.3864L12.8864 15.1818ZM14.5227 12.8636C14.7273 11.9773 14.7954 11.0682 14.7727 10.1591C15.8182 10.5227 16.1591 12.3636 16.2727 13.5C15.8409 13.25 15.2273 12.9773 14.5227 12.8636Z" fill="white"/>
<path d="M12.0909 9.22727C11.4772 9.11364 11.3863 10.0909 12 10.0909C12.5227 10.1136 12.5909 9.31818 12.0909 9.22727Z" fill="white"/>
<path d="M16.7727 4.13636C16.1364 4.13636 16.25 3.15909 16.8636 3.27273C17.3636 3.36364 17.2727 4.15909 16.7727 4.13636Z" fill="white"/>
<path d="M7.22728 4.13636C6.59091 4.13636 6.70455 3.15909 7.31818 3.27273C7.81818 3.36364 7.75 4.15909 7.22728 4.13636Z" fill="white"/>
<path d="M3.6591 12.4773C3.13637 12.5 3.06819 11.7045 3.56819 11.6136C4.20455 11.5 4.29546 12.4545 3.6591 12.4773Z" fill="white"/>
<path d="M20.3409 12.4773C19.7045 12.4773 19.8182 11.5 20.4318 11.6136C20.9318 11.7045 20.8409 12.5 20.3409 12.4773Z" fill="white"/>
</svg>
