<svg width="64" height="65" viewBox="0 0 64 65" fill="none" xmlns="http://www.w3.org/2000/svg">
<path d="M38.4985 14.6578L29.092 24.2076C27.7226 25.5979 28.6922 27.9779 30.6303 27.9766L47.5408 27.9766C50.0039 27.9753 52.0013 30.0031 52 32.5037C51.9987 35.0043 50.0026 37.0308 47.5408 37.0308L30.6316 37.0294C28.6935 37.0308 27.7239 39.4082 29.0933 40.7984L38.4998 50.3482C35.0169 53.8842 29.3703 53.8842 25.8861 50.3469L14.6128 38.9019C11.1299 35.3659 11.1286 29.6321 14.6115 26.0961L25.8835 14.6525C29.3664 11.1165 35.0142 11.1152 38.4985 14.6525L38.4985 14.6578Z" fill="white"/>
<rect x="0.5" y="0.5" width="63" height="64" rx="31.5" stroke="#C6FF00"/>
</svg>
