<svg width="24" height="24" viewBox="0 0 24 24" fill="none" xmlns="http://www.w3.org/2000/svg">
<path fill-rule="evenodd" clip-rule="evenodd" d="M3.14591 3.14591C3.34046 2.95136 3.65576 2.95136 3.85031 3.14591L10.9435 10.2391C11.138 10.4336 11.138 10.7489 10.9435 10.9435C10.7489 11.138 10.4336 11.138 10.2391 10.9435L3.14591 3.85028C2.95136 3.65574 2.95136 3.34046 3.14591 3.14591ZM13.2353 13.2353C13.4299 13.0407 13.7452 13.0407 13.9397 13.2353L21.0329 20.3284C21.2274 20.523 21.2274 20.8383 21.0329 21.0328C20.8383 21.2274 20.523 21.2274 20.3285 21.0328L13.2353 13.9397C13.0408 13.7451 13.0408 13.4298 13.2353 13.2353ZM13.9397 10.9445L21.0328 3.85135C21.2274 3.6568 21.2274 3.34152 21.0328 3.14697C20.8383 2.95242 20.523 2.95242 20.3285 3.14697L13.2353 10.2401C13.0407 10.4347 13.0407 10.75 13.2353 10.9445C13.4298 11.1391 13.7451 11.1391 13.9397 10.9445ZM3.14593 20.3284L10.2391 13.2353C10.4336 13.0407 10.7489 13.0407 10.9435 13.2353C11.138 13.4298 11.138 13.7451 10.9435 13.9397L3.85033 21.0328C3.65578 21.2274 3.34047 21.2274 3.14593 21.0328C2.95138 20.8383 2.95138 20.523 3.14593 20.3284Z" fill="#DBFF00"/>
</svg>
