<svg width="24" height="24" viewBox="0 0 24 24" fill="none" xmlns="http://www.w3.org/2000/svg">
<path d="M11.7727 7.63636C11.5227 7.63636 11.3409 7.43182 11.3409 7.20455V5.40909C11.3409 4 10.2045 2.86364 8.79546 2.86364C7.38637 2.86364 6.25 4 6.25 5.40909V7.20455C6.25 7.45455 6.04546 7.63636 5.81819 7.63636C5.59091 7.63636 5.38637 7.43182 5.38637 7.20455V5.40909C5.38637 3.52273 6.9091 2 8.79546 2C10.6818 2 12.2045 3.52273 12.2045 5.40909V7.20455C12.2045 7.43182 12 7.63636 11.7727 7.63636Z" fill="#C6FF00"/>
<path d="M19.3409 8.38636C19.3409 7.63636 18.8409 7 18.1591 6.81818C18.1591 6.81818 17.9545 6.75 17.2955 6.75C16.8182 6.75 5.81818 6.75 5.81818 6.75C4.27273 6.77273 3 8.02273 3 9.56818V14.3409C3 15.2273 3.72727 15.9773 4.63636 15.9773C4.90909 15.9773 5.15909 15.9091 5.38636 15.7955V20C4.70455 20.1818 4.20455 20.8182 4.20455 21.5682C4.20455 21.8182 4.40909 22 4.63636 22H12.9773C13.2273 22 13.4091 21.7955 13.4091 21.5682C13.4091 20.8182 12.9091 20.1818 12.2273 20V10.0227C12.2273 10.0227 17.0682 10.0227 17.2955 10.0227C17.9545 10.0227 18.1591 9.95455 18.1591 9.95455C18.8409 9.77273 19.3409 9.13636 19.3409 8.38636ZM4.63636 15.0909C4.22727 15.0909 3.88636 14.75 3.88636 14.3409V13.5909H5.38636V14.3409C5.38636 14.75 5.04545 15.0909 4.63636 15.0909ZM11.7727 9.13636C11.5227 9.13636 11.3409 9.34091 11.3409 9.56818V20.3636C11.3409 20.6136 11.5455 20.7955 11.7727 20.7955C12.0227 20.7955 12.25 20.9318 12.3864 21.1136H9.22727V15.5227C9.22727 15.2727 9.02273 15.0909 8.79545 15.0909C8.56818 15.0909 8.36364 15.2955 8.36364 15.5227V21.1136H5.20455C5.34091 20.9318 5.56818 20.7955 5.81818 20.7955C6.06818 20.7955 6.25 20.5909 6.25 20.3636V9.45455C6.25 9.20455 6.04545 9.02273 5.81818 9.02273C5.59091 9.02273 5.38636 9.22727 5.38636 9.45455V12.7045H3.86364V9.56818C3.86364 8.5 4.72727 7.61364 5.81818 7.61364H16.0909V9.11364H11.7727V9.13636ZM17.7273 9.13636H16.9773V7.63636H17.7273C18.1364 7.63636 18.4773 7.97727 18.4773 8.38636C18.4773 8.79545 18.1364 9.13636 17.7273 9.13636Z" fill="white"/>
<path d="M9.81817 9.56819C9.81817 9.31819 9.61363 9.13637 9.38636 9.13637H8.20454C7.95454 9.13637 7.77272 9.34091 7.77272 9.56819C7.77272 9.81819 7.97727 10 8.20454 10H9.38636C9.63636 10.0227 9.81817 9.81819 9.81817 9.56819Z" fill="white"/>
<path d="M8.00002 11.7955C7.79547 11.2727 6.97729 11.6136 7.20456 12.1364C7.40911 12.6591 8.22729 12.3182 8.00002 11.7955Z" fill="white"/>
<path d="M10.3864 11.7955C10.1818 11.2727 9.36366 11.6136 9.59093 12.1364C9.79547 12.6591 10.6137 12.3182 10.3864 11.7955Z" fill="white"/>
<path fill-rule="evenodd" clip-rule="evenodd" d="M15.9205 10.2727C15.9205 9.98965 16.1487 9.76137 16.4318 9.76137H19.1137C19.3967 9.76137 19.625 9.98964 19.625 10.2727V11.9318C19.625 12.2149 19.3967 12.4432 19.1137 12.4432H16.4318C16.1487 12.4432 15.9205 12.2149 15.9205 11.9318V10.2727ZM16.5341 10.375V11.8295H19.0114V10.375H16.5341Z" fill="white"/>
<path fill-rule="evenodd" clip-rule="evenodd" d="M20.8409 12.5909L20.4773 16.3182H14.9545L14.5682 12.5909H20.8409ZM21.25 11.6818H14.1818C13.8636 11.6818 13.6364 11.9318 13.6364 12.2273L14.0909 16.6818C14.0909 16.9773 14.3409 17.2273 14.6364 17.2273H20.8182C21.1364 17.2273 21.3636 16.9773 21.3636 16.6818L21.8182 12.2273C21.8182 11.9091 21.5682 11.6818 21.25 11.6818ZM18.8637 13.1363C19.1148 13.1363 19.3183 13.3399 19.3183 13.5909V15.1818C19.3183 15.4328 19.1148 15.6363 18.8637 15.6363C18.6127 15.6363 18.4092 15.4328 18.4092 15.1818V13.5909C18.4092 13.3399 18.6127 13.1363 18.8637 13.1363ZM17.0455 13.5909C17.0455 13.3399 16.842 13.1363 16.591 13.1363C16.34 13.1363 16.1365 13.3399 16.1365 13.5909V15.1818C16.1365 15.4328 16.34 15.6363 16.591 15.6363C16.842 15.6363 17.0455 15.4328 17.0455 15.1818V13.5909Z" fill="#C6FF00"/>
</svg>
