<svg width="24" height="24" viewBox="0 0 24 24" fill="none" xmlns="http://www.w3.org/2000/svg">
<path d="M12 11.0909C12.25 11.0909 12.4318 10.8864 12.4318 10.6591V6.5C12.8409 6.52273 13.2273 6.61364 13.6136 6.72727C14.1363 6.88636 14.5454 7.09091 14.9773 7.36364C15.1818 7.5 15.4545 7.43182 15.5909 7.25C15.7273 7.04546 15.6591 6.77273 15.4773 6.63636C15 6.31818 14.5 6.09091 13.8863 5.88637C13.4091 5.75 12.9318 5.65909 12.4545 5.61364V2.47727C12.4545 2.22727 12.25 2.04546 12.0227 2.04546C11.7954 2.04546 11.5682 2.22727 11.5682 2.47727V5.63637C10.0227 5.75 8.5909 6.38637 7.49999 7.5C6.40908 8.61364 5.72726 10.0227 5.63635 11.5682H2.47726C2.22726 11.5682 2.04544 11.7727 2.04544 12C2.04544 12.25 2.24999 12.4318 2.47726 12.4318H5.63635C5.72726 13.9773 6.34089 15.3636 7.40908 16.4318C7.49999 16.5227 7.61362 16.5682 7.72726 16.5682C7.8409 16.5682 7.95453 16.5227 8.04544 16.4318C8.22726 16.25 8.22726 15.9773 8.04544 15.8182C7.13635 14.9091 6.61362 13.7727 6.52271 12.4318H10.6818C10.9318 12.4318 11.1136 12.2273 11.1136 12C11.1136 11.75 10.9091 11.5682 10.6818 11.5682H6.49999C6.59089 10.2727 7.15908 9.04546 8.09089 8.11364C9.02271 7.18182 10.25 6.61364 11.5454 6.52273V10.6818C11.5682 10.9091 11.75 11.0909 12 11.0909Z" fill="white"/>
<path d="M21.5227 11.5682H18.3636C18.3409 11.0909 18.25 10.5909 18.0909 10.1364C17.9091 9.52272 17.6818 9.04545 17.3409 8.54545C17.2045 8.3409 16.9318 8.29545 16.7273 8.43181C16.5227 8.56818 16.4773 8.8409 16.6136 9.04545C16.8864 9.47727 17.0909 9.86363 17.25 10.4091C17.3636 10.7955 17.4318 11.1818 17.4773 11.5909H13.3409C13.0909 11.5909 12.9091 11.7955 12.9091 12.0227C12.9091 12.2727 13.1136 12.4545 13.3409 12.4545H17.5C17.4091 13.75 16.8409 14.9773 15.9091 15.9091C14.8409 16.9773 13.5227 17.5227 12.0909 17.5227C11.8409 17.5227 11.6591 17.7273 11.6591 17.9545C11.6591 18.1818 11.8636 18.3864 12.0909 18.3864C13.7727 18.3864 15.2955 17.7273 16.5227 16.5227C17.6364 15.4091 18.2727 13.9773 18.3864 12.4545H21.5455C21.7955 12.4545 21.9773 12.25 21.9773 12.0227C21.9545 11.75 21.7727 11.5682 21.5227 11.5682Z" fill="white"/>
<path d="M16.2046 9.4091C15.7955 9.4091 15.3636 9.25 15.0455 8.93182C14.7273 8.61364 14.5682 8.20455 14.5682 7.77273C14.5682 7.34091 14.7273 6.93182 15.0455 6.61364C15.6818 5.97728 16.7046 5.97728 17.3409 6.61364C17.6591 6.93182 17.8182 7.34091 17.8182 7.77273C17.8182 8.20455 17.6591 8.61364 17.3409 8.93182C17.0455 9.25 16.6364 9.4091 16.2046 9.4091ZM16.2046 7.04546C16.0227 7.04546 15.8182 7.11364 15.6818 7.27273C15.3864 7.56819 15.3864 8.04546 15.6818 8.34091C15.9773 8.63637 16.4546 8.63637 16.75 8.34091C17.0455 8.04546 17.0455 7.56819 16.75 7.27273C16.5909 7.11364 16.4091 7.04546 16.2046 7.04546Z" fill="#C6FF00"/>
<path d="M13.6363 12C13.6363 11.1136 12.9091 10.3636 12 10.3636C11.0909 10.3636 10.3636 11.0909 10.3636 12C10.3636 12.2955 10.4318 12.5682 10.5682 12.7955L4.95452 18.4318C4.77271 18.6136 4.77271 18.8864 4.95452 19.0455C5.04543 19.1364 5.15907 19.1818 5.27271 19.1818C5.38634 19.1818 5.49998 19.1364 5.59089 19.0455L11.2273 13.4091C11.3409 13.4773 11.4545 13.5227 11.5909 13.5682V21.5227C11.5909 21.7727 11.7954 21.9545 12.0227 21.9545C12.25 21.9545 12.4545 21.75 12.4545 21.5227V13.5682C13.1136 13.3864 13.6363 12.75 13.6363 12ZM12 12.75C11.7954 12.75 11.6136 12.6591 11.4773 12.5227C11.3409 12.3864 11.25 12.2045 11.25 12C11.25 11.5909 11.5909 11.25 12 11.25C12.4091 11.25 12.75 11.5909 12.75 12C12.75 12.4091 12.4091 12.75 12 12.75Z" fill="#C6FF00"/>
<path d="M12 22C9.31818 22 6.81818 20.9545 4.93182 19.0682C3.04545 17.1818 2 14.6818 2 12C2 9.31818 3.04545 6.81818 4.93182 4.93182C6.81818 3.04545 9.31818 2 12 2C14.6818 2 17.1818 3.04545 19.0682 4.93182C20.9545 6.81818 22 9.31818 22 12C22 14.2955 21.3182 16.3409 19.9545 18.0909C19.7955 18.2727 19.5227 18.3182 19.3409 18.1591C19.1591 18 19.1136 17.7273 19.2727 17.5455C20.5227 15.9545 21.1364 14.0909 21.1364 12C21.1364 9.56818 20.1818 7.27273 18.4545 5.54545C16.7273 3.81818 14.4318 2.86364 12 2.86364C9.56818 2.86364 7.27273 3.81818 5.54545 5.54545C3.81818 7.27273 2.86364 9.56818 2.86364 12C2.86364 14.4318 3.81818 16.7273 5.54545 18.4545C7.27273 20.1818 9.56818 21.1364 12 21.1364C14.0682 21.1364 15.9318 20.5 17.5227 19.2727C17.7045 19.1136 17.9773 19.1591 18.1364 19.3409C18.2955 19.5227 18.25 19.7955 18.0682 19.9545C16.3182 21.3182 14.2727 22 12 22Z" fill="white"/>
<path d="M18.7273 20.3636C18.3182 20.3636 17.8863 20.2045 17.5682 19.8864C17.25 19.5682 17.0909 19.1818 17.0909 18.7273C17.0909 18.2955 17.25 17.8864 17.5682 17.5682C18.2045 16.9318 19.2273 16.9318 19.8636 17.5682C20.1818 17.8864 20.3409 18.2955 20.3409 18.7273C20.3409 19.1591 20.1818 19.5682 19.8636 19.8864C19.5682 20.2045 19.1591 20.3636 18.7273 20.3636ZM18.7273 17.9773C18.5454 17.9773 18.3409 18.0455 18.2045 18.2045C17.9091 18.5 17.9091 18.9773 18.2045 19.2727C18.5 19.5682 18.9773 19.5682 19.2727 19.2727C19.5682 18.9773 19.5682 18.5 19.2727 18.2045C19.1136 18.0455 18.9318 17.9773 18.7273 17.9773Z" fill="#C6FF00"/>
</svg>
