<svg width="24" height="24" viewBox="0 0 24 24" fill="none" xmlns="http://www.w3.org/2000/svg">
<path d="M7.25 22C7.06818 22 6.88636 21.8864 6.84091 21.7045L5.70455 18.3182L2.31818 17.1818C2.11364 17.1136 2 16.9545 2 16.7727C2 16.5909 2.11364 16.4091 2.29545 16.3636L5.68182 15.2273L6.81818 11.8409C6.88636 11.6591 7.04545 11.5455 7.22727 11.5455C7.40909 11.5455 7.59091 11.6591 7.63636 11.8409L8.77273 15.2273L12.1591 16.3636C12.3409 16.4318 12.4545 16.5909 12.4545 16.7727C12.4545 16.9545 12.3409 17.1364 12.1591 17.1818L8.77273 18.3182L7.63636 21.7045C7.59091 21.8864 7.43182 22 7.25 22ZM3.81818 16.7727L6.18182 17.5682C6.31818 17.6136 6.40909 17.7045 6.45455 17.8409L7.25 20.1818L8.04545 17.8182C8.09091 17.6818 8.18182 17.5909 8.31818 17.5455L10.6591 16.7727L8.29545 15.9773C8.15909 15.9318 8.06818 15.8409 8.02273 15.7045L7.22727 13.3409L6.43182 15.7045C6.38636 15.8409 6.29545 15.9318 6.15909 15.9773L3.81818 16.7727Z" fill="white"/>
<path d="M9.06819 10.3409C8.95456 10.3409 8.84092 10.2955 8.75001 10.2045C8.59092 10.0227 8.59092 9.75 8.75001 9.59091C9.84092 8.54546 11.0682 7.68182 12.4318 7.02273C13.7955 6.36364 15.2273 5.93182 16.7273 5.75C16.9773 5.72727 17.1818 5.88637 17.2273 6.13637C17.25 6.38637 17.0909 6.59091 16.8409 6.63637C14 7 11.4091 8.25 9.36365 10.25C9.27274 10.2955 9.18183 10.3409 9.06819 10.3409Z" fill="#C6FF00"/>
<path d="M20.3636 6.59091C20.3409 6.59091 20.3182 6.59091 20.2955 6.59091C19.9091 6.54545 19.5227 6.5 19.1364 6.5C18.8864 6.5 18.7045 6.29545 18.7273 6.04545C18.7273 5.79545 18.9318 5.61364 19.1818 5.63636C19.5909 5.65909 20 5.68182 20.4091 5.75C20.6591 5.77273 20.8182 6 20.7955 6.25C20.7727 6.43182 20.5909 6.59091 20.3636 6.59091Z" fill="#C6FF00"/>
<path d="M20.3636 11.4318C20.3409 11.4318 20.2955 11.4318 20.2727 11.4318C19.9091 11.3636 19.5227 11.2955 19.1364 11.2727C18.8864 11.25 18.7045 11.0455 18.7273 10.8182C18.75 10.5682 18.9545 10.3864 19.1818 10.4091C19.5909 10.4318 20.0227 10.5 20.4318 10.5682C20.6591 10.6136 20.8182 10.8409 20.7727 11.0909C20.75 11.2727 20.5682 11.4318 20.3636 11.4318Z" fill="#C6FF00"/>
<mask id="mask0_507_530" style="mask-type:luminance" maskUnits="userSpaceOnUse" x="2" y="2" width="20" height="20">
<path d="M22 2H2V22H22V2Z" fill="white"/>
</mask>
<g mask="url(#mask0_507_530)">
<path d="M11.75 14.4318C11.6591 14.4318 11.5455 14.4091 11.4773 14.3182C11.2955 14.1591 11.2728 13.8864 11.4318 13.7045C12.7955 12.0909 14.6818 10.9545 16.7273 10.5454C16.9546 10.5 17.2046 10.6591 17.25 10.8864C17.2955 11.1136 17.1364 11.3636 16.9091 11.4091C15.0455 11.7954 13.3409 12.7954 12.0909 14.2727C12 14.3864 11.8637 14.4318 11.75 14.4318Z" fill="#C6FF00"/>
</g>
<mask id="mask1_507_530" style="mask-type:luminance" maskUnits="userSpaceOnUse" x="2" y="2" width="20" height="20">
<path d="M22 2H2V22H22V2Z" fill="white"/>
</mask>
<g mask="url(#mask1_507_530)">
<path d="M9.90908 12.9091C9.81817 12.9091 9.70454 12.8864 9.63636 12.7955C9.45454 12.6364 9.43181 12.3636 9.5909 12.1818C11.8182 9.52273 15.1136 8 18.5909 8C19.6364 8 20.6818 8.13636 21.6818 8.40909C21.9091 8.47727 22.0454 8.70455 22 8.95455C21.9318 9.18182 21.7045 9.31818 21.4545 9.27273C20.5227 9.02273 19.5682 8.88636 18.5909 8.88636C15.3636 8.88636 12.3409 10.2955 10.25 12.7727C10.1591 12.8636 10.0454 12.9091 9.90908 12.9091Z" fill="#C6FF00"/>
</g>
<path d="M21.5682 18.7045H20.8182V17.9545C20.8182 17.7045 20.6136 17.5227 20.3864 17.5227C20.1364 17.5227 19.9546 17.7273 19.9546 17.9545V18.7045H19.2046C18.9546 18.7045 18.7727 18.9091 18.7727 19.1364C18.7727 19.3864 18.9773 19.5682 19.2046 19.5682H19.9546V20.3182C19.9546 20.5682 20.1591 20.75 20.3864 20.75C20.6364 20.75 20.8182 20.5454 20.8182 20.3182V19.5682H21.5682C21.8182 19.5682 22 19.3636 22 19.1364C22 18.9091 21.7955 18.7045 21.5682 18.7045Z" fill="#C6FF00"/>
<path d="M12.0455 3.18182H11.2955V2.43182C11.2727 2.20455 11.0909 2 10.8409 2C10.6136 2 10.4091 2.20455 10.4091 2.43182V3.18182H9.6591C9.4091 3.18182 9.22728 3.38636 9.22728 3.61364C9.22728 3.84091 9.43183 4.04545 9.6591 4.04545H10.4091V4.79545C10.4091 5.04545 10.6136 5.22727 10.8409 5.22727C11.0909 5.22727 11.2727 5.02273 11.2727 4.79545V4.06818H12.0227C12.2727 4.06818 12.4546 3.86364 12.4546 3.63636C12.4546 3.40909 12.2727 3.18182 12.0455 3.18182Z" fill="#C6FF00"/>
<path d="M15.6137 4.11365C15.0909 4.13637 15.0228 3.34092 15.5228 3.25001C16.1364 3.13637 16.2273 4.09092 15.6137 4.11365Z" fill="white"/>
<path d="M7.27271 7.68182C6.63635 7.68182 6.74999 6.70455 7.36362 6.81818C7.86362 6.90909 7.79544 7.68182 7.27271 7.68182Z" fill="white"/>
<path d="M15.6137 14.8182C15.0909 14.8409 15.0228 14.0454 15.5228 13.9545C16.1364 13.8409 16.2273 14.7954 15.6137 14.8182Z" fill="white"/>
<path d="M20.3636 14.8182C19.7273 14.7954 19.8409 13.8409 20.4546 13.9545C20.9546 14.0454 20.8864 14.8182 20.3636 14.8182Z" fill="white"/>
</svg>
