<svg width="24" height="24" viewBox="0 0 24 24" fill="none" xmlns="http://www.w3.org/2000/svg">
<path d="M13.0454 21.9546C12.7954 21.9546 12.6136 21.75 12.6136 21.5227V14.4091C12.6136 14.1591 12.8182 13.9773 13.0454 13.9773C13.2954 13.9773 13.4773 14.1818 13.4773 14.4091V21.5C13.4773 21.75 13.2954 21.9546 13.0454 21.9546Z" fill="#C6FF00"/>
<path d="M16.6136 22C16.4318 22 16.25 21.8864 16.2046 21.7046L13.8182 14.5682C13.75 14.3409 13.8636 14.0909 14.0909 14.0227C14.3182 13.9546 14.5682 14.0682 14.6364 14.2955L17.0227 21.4318C17.0909 21.6591 16.9773 21.9091 16.75 21.9773C16.7046 22 16.6591 22 16.6136 22Z" fill="#C6FF00"/>
<mask id="mask0_507_535" style="mask-type:luminance" maskUnits="userSpaceOnUse" x="2" y="2" width="20" height="20">
<path d="M21.7955 2H2V22H21.7955V2Z" fill="white"/>
</mask>
<g mask="url(#mask0_507_535)">
<path d="M9.47718 22C9.43172 22 9.38627 22 9.34081 21.9773C9.11354 21.9091 8.97718 21.6591 9.06809 21.4318L11.4545 14.2727C11.5226 14.0454 11.7726 13.9091 11.9999 14C12.2272 14.0682 12.3635 14.3182 12.2726 14.5454L9.88627 21.7045C9.84081 21.8864 9.659 22 9.47718 22Z" fill="#C6FF00"/>
</g>
<mask id="mask1_507_535" style="mask-type:luminance" maskUnits="userSpaceOnUse" x="2" y="2" width="20" height="20">
<path d="M21.7955 2H2V22H21.7955V2Z" fill="white"/>
</mask>
<g mask="url(#mask1_507_535)">
<path d="M19.7726 8.45454C19.5908 8.45454 19.4317 8.34091 19.3635 8.18181C19.2726 7.95454 19.3863 7.70454 19.6135 7.61363C20.6135 7.22727 21.1363 6.11363 20.7499 5.11363C20.5681 4.63636 20.2045 4.25 19.7272 4.02272C19.2499 3.81818 18.7272 3.79545 18.2499 3.97727C18.0226 4.06818 17.7726 3.95454 17.6817 3.72727C17.5908 3.5 17.7045 3.25 17.9317 3.15909C18.6363 2.88636 19.409 2.90909 20.0908 3.22727C20.7726 3.54545 21.2954 4.09091 21.5681 4.79545C22.1135 6.25 21.3863 7.88636 19.9317 8.43181C19.8635 8.43181 19.8181 8.45454 19.7726 8.45454Z" fill="#C6FF00"/>
</g>
<mask id="mask2_507_535" style="mask-type:luminance" maskUnits="userSpaceOnUse" x="2" y="2" width="20" height="20">
<path d="M21.7955 2H2V22H21.7955V2Z" fill="white"/>
</mask>
<g mask="url(#mask2_507_535)">
<path d="M20.5226 9.38636C20.6136 9.27272 20.6363 9.0909 20.5908 8.95454L18.0681 2.29545C17.9772 2.04545 17.6817 1.93181 17.4545 2.04545L15.2954 3.0909L5.63628 7.77272C5.43174 7.86363 5.34083 8.11363 5.40901 8.31818L5.68174 9.02272L3.15901 9.97727L2.88628 9.27272C2.79537 9.04545 2.54537 8.93181 2.3181 9.02272C2.09083 9.11363 1.97719 9.36363 2.0681 9.5909L2.47719 10.7045L3.3181 12.9318L3.74992 14.0454C3.8181 14.2273 3.97719 14.3182 4.15901 14.3182C4.20446 14.3182 4.27264 14.3182 4.3181 14.2954C4.54537 14.2045 4.65901 13.9545 4.5681 13.7273L4.29537 13.0227L6.8181 12.0682L7.09083 12.7727C7.15901 12.9545 7.3181 13.0454 7.49992 13.0454C7.54537 13.0454 7.5681 13.0454 7.61355 13.0227L11.4317 12V13.9773H10.6817C10.4317 13.9773 10.2499 14.1818 10.2499 14.4091C10.2499 14.6591 10.4545 14.8409 10.6817 14.8409H15.5226C15.7726 14.8409 15.9545 14.6364 15.9545 14.4091C15.9545 14.1591 15.7499 13.9773 15.5226 13.9773H14.6817V11.0909L17.9999 10.1818L20.2954 9.54545C20.3863 9.52272 20.4772 9.45454 20.5226 9.38636ZM18.1363 9.22727L16.0681 3.70454L17.4317 3.04545L19.6136 8.81818L18.1363 9.22727ZM3.99992 12.2045L3.47719 10.7954L5.99992 9.8409L6.52264 11.25L3.99992 12.2045ZM7.49992 11.3636L6.38628 8.38636L15.2726 4.06818L17.2954 9.45454L7.77264 12.0909L7.49992 11.3636ZM13.7954 13.9773H12.2954V11.75L13.7954 11.3409V13.9773Z" fill="white"/>
</g>
</svg>
