<svg width="24" height="24" viewBox="0 0 24 24" fill="none" xmlns="http://www.w3.org/2000/svg">
<mask id="mask0_507_534" style="mask-type:luminance" maskUnits="userSpaceOnUse" x="2" y="2" width="20" height="20">
<path d="M22 2H2V22H22V2Z" fill="white"/>
</mask>
<g mask="url(#mask0_507_534)">
<path d="M12 22C11.7727 22 11.5909 21.8409 11.5682 21.6136C11.5682 21.5909 11.3409 19.5682 10.0682 19.2273C8.81818 18.8864 7.61364 20.5 7.59091 20.5227C7.45455 20.7045 7.20455 20.75 7.02273 20.6364C6.81818 20.5227 6.75 20.2727 6.84091 20.0909C6.84091 20.0682 7.65909 18.2273 6.72727 17.2955C5.79545 16.3636 3.95455 17.1591 3.93182 17.1818C3.72727 17.2727 3.47727 17.2045 3.38636 17C3.27273 16.7955 3.31818 16.5682 3.5 16.4318C3.52273 16.4091 5.13636 15.2273 4.79545 13.9545C4.45455 12.6818 2.43182 12.4545 2.40909 12.4545C2.15909 12.4091 2 12.2273 2 12C2 11.7727 2.15909 11.5909 2.38636 11.5682C2.40909 11.5682 4.43182 11.3409 4.77273 10.0682C5.11364 8.79545 3.5 7.61364 3.47727 7.59091C3.29545 7.45455 3.25 7.20455 3.36364 7.02273C3.47727 6.81818 3.70455 6.75 3.90909 6.84091C3.93182 6.84091 5.77273 7.65909 6.70455 6.72727C7.63636 5.79545 6.84091 3.95455 6.81818 3.93182C6.72727 3.72727 6.79545 3.47727 7 3.38636C7.20455 3.27273 7.43182 3.31818 7.56818 3.5C7.59091 3.52273 8.77273 5.13636 10.0455 4.79545C11.3182 4.45455 11.5455 2.43182 11.5455 2.40909C11.5909 2.15909 11.7727 2 12 2C12.2273 2 12.4091 2.15909 12.4318 2.38636C12.4318 2.40909 12.6591 4.43182 13.9318 4.77273C15.2045 5.11364 16.3864 3.5 16.4091 3.47727C16.5455 3.29545 16.7955 3.25 16.9773 3.36364C17.1818 3.47727 17.25 3.70455 17.1591 3.90909C17.1591 3.93182 16.3409 5.77273 17.2727 6.70455C18.2045 7.63636 20.0455 6.84091 20.0682 6.81818C20.2727 6.72727 20.5227 6.79545 20.6136 7C20.7273 7.20455 20.6818 7.43182 20.5 7.56818C20.4773 7.59091 18.8636 8.77273 19.2045 10.0455C19.5455 11.3182 21.5682 11.5455 21.5909 11.5455C21.8182 11.5682 21.9773 11.75 21.9773 11.9773C21.9773 12.2045 21.8182 12.3864 21.5909 12.4091C21.5682 12.4091 19.5455 12.6364 19.2045 13.9091C18.8636 15.1818 20.4773 16.3636 20.5 16.3864C20.6818 16.5227 20.7273 16.7727 20.6136 16.9545C20.5 17.1591 20.2727 17.2273 20.0682 17.1364C20.0455 17.1364 18.2045 16.3182 17.2727 17.25C16.3409 18.1818 17.1364 20.0227 17.1591 20.0455C17.25 20.25 17.1818 20.5 16.9773 20.5909C16.7727 20.7045 16.5455 20.6591 16.4091 20.4773C16.3864 20.4545 15.2045 18.8409 13.9318 19.1818C12.6591 19.5227 12.4318 21.5455 12.4318 21.5682C12.4091 21.8409 12.2273 22 12 22ZM9.70455 18.2955C9.88636 18.2955 10.0909 18.3182 10.2955 18.3636C11.1591 18.5909 11.6818 19.2955 12 19.9545C12.3182 19.2727 12.8409 18.5909 13.7045 18.3636C14.5682 18.1364 15.3636 18.4545 15.9773 18.8864C15.9091 18.1591 16.0227 17.2955 16.6591 16.6591C17.2955 16.0227 18.1591 15.9091 18.8864 15.9773C18.4545 15.3864 18.1364 14.5909 18.3636 13.7045C18.5909 12.8409 19.2955 12.3182 19.9545 12C19.2727 11.6818 18.5909 11.1591 18.3636 10.2955C18.1364 9.43182 18.4545 8.63636 18.8864 8.02273C18.1591 8.09091 17.2955 7.97727 16.6591 7.34091C16.0227 6.70455 15.9091 5.84091 15.9773 5.11364C15.3864 5.52273 14.5909 5.86364 13.7045 5.63636C12.8409 5.40909 12.3182 4.70455 12 4.04545C11.6818 4.72727 11.1591 5.40909 10.2955 5.63636C10.0909 5.68182 9.88636 5.70455 9.70455 5.70455C9.06818 5.70455 8.5 5.43182 8.02273 5.11364C8.09091 5.84091 7.97727 6.70455 7.34091 7.34091C6.70455 7.97727 5.84091 8.09091 5.11364 8.02273C5.52273 8.61364 5.86364 9.40909 5.63636 10.2955C5.40909 11.1591 4.70455 11.6818 4.04545 12C4.72727 12.3182 5.40909 12.8409 5.63636 13.7045C5.86364 14.5682 5.54545 15.3636 5.11364 15.9773C5.84091 15.9091 6.70455 16.0227 7.34091 16.6591C7.97727 17.2955 8.09091 18.1591 8.02273 18.8864C8.47727 18.5682 9.06818 18.2955 9.70455 18.2955Z" fill="#C6FF00"/>
</g>
<path d="M12 17.2045C9.13638 17.2045 6.79547 14.8636 6.79547 12C6.79547 9.13636 9.13638 6.79546 12 6.79546C14.8637 6.79546 17.2046 9.13636 17.2046 12C17.2046 14.8636 14.8637 17.2045 12 17.2045ZM12 7.68182C9.61365 7.68182 7.68183 9.61364 7.68183 12C7.68183 14.3864 9.61365 16.3182 12 16.3182C14.3864 16.3182 16.3182 14.3864 16.3182 12C16.3182 9.61364 14.3864 7.68182 12 7.68182Z" fill="white"/>
<path d="M19.1363 5.29545C18.5 5.27273 18.6136 4.31818 19.2273 4.43182C19.7273 4.52273 19.6591 5.29545 19.1363 5.29545Z" fill="white"/>
<path d="M4.86366 5.29545C4.22729 5.29545 4.34093 4.31818 4.95457 4.43182C5.45457 4.52273 5.36366 5.29545 4.86366 5.29545Z" fill="white"/>
<path d="M4.86366 19.5909C4.22729 19.5682 4.34093 18.6136 4.95457 18.7273C5.45457 18.7955 5.36366 19.5909 4.86366 19.5909Z" fill="white"/>
<path d="M19.1363 19.5909C18.5 19.5682 18.6136 18.6136 19.2273 18.7273C19.7273 18.7955 19.6591 19.5909 19.1363 19.5909Z" fill="white"/>
</svg>
