<svg width="24" height="24" viewBox="0 0 24 24" fill="none" xmlns="http://www.w3.org/2000/svg">
<path d="M21.4771 11.4774H14.9821C14.3474 11.4774 14.0292 10.7098 14.4787 10.2611L19.071 5.66857C19.2751 5.46454 19.2751 5.13308 19.071 4.92984C18.867 4.72581 18.5356 4.72581 18.3316 4.92984L13.7392 9.52237C13.2905 9.97107 12.5229 9.6537 12.5229 9.01817V2.52296C12.5229 2.23373 12.2892 2 12 2C11.7108 2 11.4771 2.23373 11.4771 2.52296V9.01817C11.4771 9.65292 10.7095 9.97107 10.2608 9.52237L5.66842 4.92984C5.4644 4.72581 5.13297 4.72581 4.92895 4.92984C4.72493 5.13386 4.72493 5.46454 4.92895 5.66857L9.5213 10.2611C9.96999 10.7098 9.65262 11.4774 9.0179 11.4774H2.52295C2.23451 11.4774 2 11.7112 2 12.0004C2 12.2896 2.23373 12.5234 2.52295 12.5234H9.0179C9.65262 12.5234 9.97077 13.291 9.5213 13.7397L4.92895 18.3322C4.72493 18.5363 4.72493 18.8669 4.92895 19.0709C5.13297 19.275 5.46362 19.275 5.66842 19.0709L10.2608 14.4784C10.7095 14.0297 11.4771 14.3471 11.4771 14.9818V21.477C11.4771 21.7655 11.7108 22 12 22C12.2892 22 12.5229 21.7655 12.5229 21.477V14.9818C12.5229 14.3471 13.2905 14.0289 13.7392 14.4776L18.3316 19.0702C18.5356 19.2742 18.8663 19.2742 19.071 19.0702C19.2751 18.8661 19.2751 18.5347 19.071 18.3315L14.4787 13.7389C14.03 13.2902 14.3474 12.5226 14.9821 12.5226H21.4771C21.7655 12.5226 22 12.2889 22 11.9996C22 11.7104 21.7663 11.4766 21.4771 11.4766V11.4774Z" fill="#DBFF00"/>
</svg>
