<svg width="1442" height="225" viewBox="0 0 1442 225" fill="none" xmlns="http://www.w3.org/2000/svg">
<path d="M1345.07 222.262L1297.08 222.274L1249.08 222.305L1201.07 222.293L1153.06 222.324H1105.05L1057.06 222.318L1009.05 222.355L961.05 222.33L913.04 222.355H865.03L817.032 222.336L769.029 222.368L721.025 222.336L673.015 222.355H625.011L577.001 222.33L528.997 222.349L480.994 222.336L432.99 222.318L384.986 222.343L336.983 222.305L288.979 222.324L240.969 222.305L192.965 222.293L144.968 222.299L96.9639 222.268" stroke="white" stroke-opacity="0.7" stroke-width="0.75" stroke-linecap="round" stroke-linejoin="round"/>
<path d="M1441 223.743L1393.08 222.255L1345.07 222.262L1337.78 210.141L1290.33 210.147L1242.89 210.141L1236.78 200.491L1230.82 191.029L1224.97 181.822L1219.31 172.807L1213.71 163.999L1208.29 155.389L1202.94 146.953L1197.75 138.723L1192.61 130.643L1187.64 122.756L1182.72 115.042L1177.96 107.466L1173.23 100.058L1168.67 92.8115L1164.15 85.6897L1159.75 78.7423L1155.44 71.8881L1151.2 65.2146L1147.08 58.6281L1142.99 52.1848L1139.02 45.891L1135.12 39.6657L1131.26 33.6022L1127.51 27.6382L1123.79 21.7615L1120.18 16.0093L1116.58 10.3753L1113.09 4.80991L1077.51 4.84106L1041.94 4.84714L1006.36 4.83483L970.786 4.86584L935.215 4.85337L899.643 4.8783L864.071 4.86584L828.5 4.89076L792.928 4.87207L757.35 4.89076L721.778 4.87207L686.213 4.88453H650.635L615.063 4.86584L579.498 4.87207L543.913 4.8783L508.342 4.84714L472.77 4.85961L437.192 4.85337L401.62 4.8286L366.042 4.84106L362.805 10.3629L359.549 16.0218L356.194 21.7865L352.82 27.6445L349.334 33.6146L345.841 39.6906L342.224 45.891L338.589 52.2222L334.829 58.6592L331.044 65.2083L327.128 71.9193L323.169 78.736L319.091 85.7022L314.976 92.8177L310.724 100.064L306.435 107.466L301.996 115.048L297.526 122.78L292.901 130.674L288.232 138.73L283.413 146.953L278.533 155.395L273.496 163.992L268.404 172.814L263.125 181.834L257.796 191.048L252.28 200.485L246.684 210.166H199.247L151.803 210.135L104.366 210.153L96.9638 222.268L48.9602 222.286L1 223.015" stroke="white" stroke-opacity="0.7" stroke-width="0.75" stroke-linecap="round" stroke-linejoin="round"/>
<path d="M1242.89 210.141L1195.45 210.179L1148.01 210.16L1100.58 210.179L1053.14 210.197L1005.7 210.185L958.261 210.216L910.824 210.191L863.393 210.21L815.943 210.222L768.506 210.197L721.062 210.222L673.625 210.197L626.194 210.216L578.757 210.197L531.32 210.21L483.876 210.185L436.439 210.203L388.995 210.172L341.558 210.191L294.127 210.16L246.684 210.166" stroke="white" stroke-opacity="0.7" stroke-width="0.75" stroke-linecap="round" stroke-linejoin="round"/>
<path d="M1408.07 183.939L1362.41 181.803L1316.57 181.791L1270.77 181.816L1224.97 181.822L1179.17 181.828L1133.37 181.841L1087.56 181.834L1041.76 181.872L995.955 181.847L950.137 181.872L904.331 181.865L858.524 181.859L812.724 181.878H766.931L721.15 181.89L675.362 181.872L629.574 181.884L583.781 181.847L537.968 181.872L492.162 181.847L446.35 181.865L400.544 181.841L354.731 181.853L308.931 181.822L263.125 181.834L217.331 181.816L171.525 181.803L125.725 181.809L79.9252 181.791L72.4548 191.035L64.7602 200.479L56.9225 210.166L48.9603 222.287" stroke="white" stroke-opacity="0.7" stroke-width="0.75" stroke-linecap="round" stroke-linejoin="round"/>
<path d="M1174.03 172.808L1128.74 172.839L1083.45 172.826L1038.16 172.839L992.861 172.851L947.553 172.833L902.239 172.851L856.937 172.882L811.666 172.92L766.426 173.007L721.211 173.019L675.991 173.007L630.757 172.926L585.486 172.876L540.191 172.845L494.87 172.833L449.562 172.839L404.26 172.833L358.97 172.826L313.681 172.82L268.404 172.814L223.114 172.801L177.837 172.795L132.554 172.783L87.2772 172.789L42.0935 174.906" stroke="white" stroke-opacity="0.7" stroke-width="0.75" stroke-linecap="round" stroke-linejoin="round"/>
<path d="M1392.68 166.09L1348.05 163.968L1303.26 163.992L1258.48 163.986L1213.71 163.999L1168.94 164.017L1124.15 164.005L1079.37 164.03L1034.57 164.017L989.749 164.024L944.895 164.03L900.029 164.092L855.187 164.285L810.446 164.615L765.798 164.908L721.212 165.038L676.626 164.926L631.99 164.59L587.248 164.304L542.426 164.08L497.547 164.036L452.687 164.005L407.858 164.024L363.054 164.017L318.269 164.024L273.496 163.992L228.717 164.005L183.951 163.992L139.178 163.968L94.4115 163.986L49.757 166.072" stroke="white" stroke-opacity="0.7" stroke-width="0.75" stroke-linecap="round" stroke-linejoin="round"/>
<path d="M1385.28 157.431L1341.1 155.377L1296.82 155.352L1252.57 155.383L1208.29 155.389H1164.02L1119.72 155.402H1075.42H1031.08H986.68L942.212 155.52L897.707 155.912L853.277 156.752L809.045 157.942L765.069 159.081L724.007 159.504L721.255 159.529L718.466 159.504L677.46 159.068" stroke="white" stroke-opacity="0.7" stroke-width="0.75" stroke-linecap="round" stroke-linejoin="round"/>
<path d="M933.335 135.231L889.788 142.428L886.638 143.013L885.051 143.368" stroke="white" stroke-opacity="0.7" stroke-width="0.75" stroke-linecap="round" stroke-linejoin="round"/>
<path d="M606.964 152.874L591.593 151.635L590.878 151.592L547.537 148.964" stroke="white" stroke-opacity="0.7" stroke-width="0.75" stroke-linecap="round" stroke-linejoin="round"/>
<path d="M1377.97 149.008L1334.33 146.935L1290.55 146.947L1246.73 146.953H1202.94L1159.13 146.972L1115.32 146.978L1071.47 146.96L1027.54 146.978L983.511 147.091L939.336 147.564L895.111 148.964L852.081 151.585L851.023 151.654L848.775 150.577L843.97 151.423L835.789 152.868L807.333 155.146L806.549 155.202L804.42 155.351L764.123 158.203L763.388 158.221L721.591 159.41L721.249 159.423L679.794 158.215L678.381 158.178L677.46 159.068L633.503 157.948L589.296 156.752L544.866 155.906L500.367 155.513L455.887 155.401L411.469 155.408L367.119 155.389L322.82 155.401L278.533 155.395L234.258 155.383L189.983 155.358L145.702 155.376L101.434 155.345L57.2523 157.443" stroke="white" stroke-opacity="0.7" stroke-width="0.75" stroke-linecap="round" stroke-linejoin="round"/>
<path d="M1357.12 124.748L1314.84 122.737L1272.43 122.749L1230.06 122.762L1187.64 122.755L1145.2 122.762L1102.68 122.774L1060 122.855L1017.12 123.334L973.855 125.376L930.415 131.116L887.615 142.372L886.638 143.013L882.778 144.252L876.41 145.908L870.265 147.508L854.995 149.686L848.776 150.577" stroke="white" stroke-opacity="0.7" stroke-width="0.75" stroke-linecap="round" stroke-linejoin="round"/>
<path d="M1350.45 116.978L1308.61 115.03L1266.66 115.005L1224.69 115.03L1182.72 115.042L1140.7 115.03L1098.59 115.055L1056.33 115.198L1013.7 116.076L970.711 119.282L927.787 127.574L903.011 136.376L888.555 141.506L886.227 142.334L885.966 142.427L884.179 143.318" stroke="white" stroke-opacity="0.7" stroke-width="0.75" stroke-linecap="round" stroke-linejoin="round"/>
<path d="M806.549 155.202L807.134 154.81L841.013 132.424L878.545 111.538L917.603 94.916L958.118 84.7374L998.969 80.3797L1039.52 79.0848L1079.78 78.786L1119.83 78.7425H1159.75L1199.63 78.73L1239.5 78.6989L1279.35 78.73L1319.1 80.5789" stroke="white" stroke-opacity="0.7" stroke-width="0.75" stroke-linecap="round" stroke-linejoin="round"/>
<path d="M129.896 73.7374L169.24 71.8822H208.721H248.172H287.64L327.128 71.9196L366.709 71.9444L406.476 72.1561L446.505 73.0899L486.877 76.327L527.186 84.4013L566.462 98.3774L604.206 116.742L640.979 137.417L680.149 152.183L721.61 157.076L763.058 152.177L802.372 137.354L839.157 116.58L876.821 98.3711L915.959 84.4699L956.15 76.4143L996.466 73.1273L1036.51 72.1561L1076.27 71.9631L1115.89 71.9134L1155.44 71.8884H1194.95H1234.41L1273.87 71.876L1313.23 73.7498" stroke="white" stroke-opacity="0.7" stroke-width="0.75" stroke-linecap="round" stroke-linejoin="round"/>
<path d="M135.717 67.0325L174.706 65.1773L213.745 65.1898L252.828 65.2022L291.923 65.2147L331.044 65.2085L370.226 65.2582L409.527 65.3641L449.045 65.9804L488.85 68.1219L528.724 73.787L567.968 84.3078L606.08 98.7132L643.731 113.841L681.6 128.464L721.647 133.351L761.757 128.396L799.564 113.685L837.184 98.6261L875.271 84.2704L914.441 73.787L954.233 68.1593L994.007 65.9679L1033.52 65.3889L1072.88 65.2457L1112.09 65.2147H1151.2L1190.3 65.1898H1229.38L1268.45 65.1773L1307.42 67.0325" stroke="white" stroke-opacity="0.7" stroke-width="0.75" stroke-linecap="round" stroke-linejoin="round"/>
<path d="M141.432 60.4401L180.023 58.6348L218.726 58.6036L257.404 58.6223L296.101 58.6348L334.829 58.6597L373.625 58.666L412.515 58.7655L451.579 59.0643L490.811 60.2845L530.155 63.6712L569.251 70.4505L607.661 80.3363L645.499 91.2059L683.411 99.8404L721.672 104.005L759.884 99.7097L797.79 91.0751L835.646 80.2492L874.038 70.4069L913.089 63.6525L952.403 60.2658L991.585 59.0768L1030.64 58.7593L1069.51 58.6597L1108.31 58.666L1147.08 58.6286L1185.79 58.6348L1224.49 58.6036L1263.18 58.6286L1301.78 60.4339" stroke="white" stroke-opacity="0.7" stroke-width="0.75" stroke-linecap="round" stroke-linejoin="round"/>
<path d="M152.525 47.653L190.382 45.8789L228.331 45.8477L266.281 45.8789H304.25L342.224 45.8913L380.243 45.9162L418.298 45.9348L456.447 46.0096L494.621 46.2088L532.857 46.8314L571.056 48.2942L609.08 50.7657L646.818 53.8349L684.277 56.4183L721.616 57.4891L758.981 56.3872L796.47 53.7726L834.239 50.7471L872.264 48.257L910.45 46.8127L948.68 46.2026L986.841 45.9846L1024.96 45.9473L1063.01 45.9038L1101.02 45.8851L1139.02 45.8913L1176.99 45.8602L1214.94 45.8726L1252.91 45.8539L1290.76 47.6592" stroke="white" stroke-opacity="0.7" stroke-width="0.75" stroke-linecap="round" stroke-linejoin="round"/>
<path d="M183.422 12.0439L219.224 10.3319L223.744 4.85358L259.321 4.79142L263.461 1.03751" stroke="white" stroke-opacity="0.7" stroke-width="0.75" stroke-linecap="round" stroke-linejoin="round"/>
<path d="M188.222 6.45965L223.744 4.85346L228.213 1" stroke="white" stroke-opacity="0.7" stroke-width="0.75" stroke-linecap="round" stroke-linejoin="round"/>
<path d="M1074.35 1.0562H1109.61L1144.87 1.03751L1148.66 4.82257L1152.48 10.3506L1188.38 10.3319L1192.61 16.0033L1228.83 15.9846L1233.45 21.7617L1269.93 23.4675L1275 29.3442" stroke="white" stroke-opacity="0.7" stroke-width="0.75" stroke-linecap="round" stroke-linejoin="round"/>
<path d="M1144.87 1.03745L1180.11 1.03122L1215.36 1.01875L1250.6 1.56043L1255.32 6.4784L1260.08 12.0314L1264.98 17.7152" stroke="white" stroke-opacity="0.7" stroke-width="0.75" stroke-linecap="round" stroke-linejoin="round"/>
<path d="M588.095 149.761L561.332 132.131L521.826 112.316L480.272 99.9893L438.269 94.76L396.771 93.2162L355.758 92.8613L314.976 92.8177L274.262 92.7927L233.573 92.799L192.941 92.7803L152.283 92.7927L111.7 94.6977" stroke="white" stroke-opacity="0.7" stroke-width="0.75" stroke-linecap="round" stroke-linejoin="round"/>
<path d="M855.76 149.188L882.081 132.006L921.344 112.521L962.581 100.257L1004.39 94.8721L1045.88 93.2224L1087.02 92.8675L1127.91 92.8239L1168.67 92.8114L1209.35 92.7927L1250.05 92.7803L1290.71 92.799L1331.25 94.6977" stroke="white" stroke-opacity="0.7" stroke-width="0.75" stroke-linecap="round" stroke-linejoin="round"/>
<path d="M638.881 155.401L640.979 137.416L643.731 113.841L645.499 91.2054L646.495 70.2695L646.818 53.8346L647.086 42.3674L647.472 34.318L648.051 27.8126L648.649 21.8424L649.327 16.0839L649.969 10.4065L650.635 4.88452L651.282 1.09961" stroke="white" stroke-opacity="0.7" stroke-width="0.75" stroke-linecap="round" stroke-linejoin="round"/>
<path d="M575.233 147.925L559.969 138.226L519.865 118.771L477.788 106.831L435.281 101.845L393.366 100.401L351.923 100.12L310.724 100.064L269.606 100.071L228.543 100.064L187.437 100.033L146.362 100.052L105.393 101.969" stroke="white" stroke-opacity="0.7" stroke-width="0.75" stroke-linecap="round" stroke-linejoin="round"/>
<path d="M870.34 146.294L883.457 138.039L923.349 118.927L965.059 107.087L1007.33 101.944L1049.26 100.444L1090.76 100.114L1132.06 100.058H1173.23L1214.37 100.071L1255.44 100.033L1296.53 100.052L1337.55 101.969" stroke="white" stroke-opacity="0.7" stroke-width="0.75" stroke-linecap="round" stroke-linejoin="round"/>
<path d="M1393.08 222.256L1385.22 210.172L1377.44 200.473L1369.81 191.004L1323.5 191.029L1277.17 191.035L1230.82 191.029L1184.49 191.066L1138.16 191.048L1091.82 191.073L1045.49 191.079L999.149 191.073L952.814 191.104L906.478 191.079L860.143 191.098L813.807 191.104L767.472 191.079L721.143 191.11L674.814 191.085H628.485L582.15 191.104L535.814 191.073L489.473 191.098L443.137 191.066L396.808 191.073L350.467 191.066L304.131 191.054L257.796 191.048L211.467 191.041H165.125L158.52 200.479L151.803 210.135L144.968 222.299" stroke="white" stroke-opacity="0.7" stroke-width="0.75" stroke-linecap="round" stroke-linejoin="round"/>
<path d="M1441 223.743L1432.54 212.326L1385.22 210.172L1337.78 210.141L1330.54 200.442L1283.65 200.46L1277.17 191.035L1270.77 181.815L1264.59 172.801L1258.48 163.986L1252.57 155.382L1246.73 146.953L1241.07 138.711L1235.48 130.649L1230.06 122.762L1224.69 115.03L1219.48 107.447L1214.37 100.07L1209.35 92.7927L1204.47 85.6834L1199.63 78.7297L1194.95 71.888L1190.3 65.1895L1185.79 58.6342L1181.33 52.1971L1142.99 52.1847L1104.66 52.2096L1066.25 52.2407L1027.77 52.2532L989.226 52.4213L950.529 52.9504L911.801 54.5815L873.117 58.1299L834.744 63.739L796.831 70.1823L759.205 75.4738L721.654 77.7647L684.102 75.5734L646.495 70.2694L608.589 63.8075L570.209 58.1673L531.494 54.6002L492.722 52.9566L454.013 52.4151L415.466 52.2719L376.987 52.2221H338.589L300.234 52.1847L296.101 58.6342L291.923 65.2144L287.64 71.8818L283.251 78.7297L278.819 85.7083L274.262 92.7927L269.606 100.07L264.893 107.478L260.031 115.024L255.119 122.743L250.039 130.643L244.916 138.705L239.612 146.96L234.258 155.382L228.717 164.005L223.115 172.801L217.331 181.815L211.467 191.041L205.397 200.467L158.52 200.479L111.637 200.448L104.366 210.153L56.9224 210.166L9.59102 212.351L1 223.015" stroke="white" stroke-opacity="0.7" stroke-width="0.75" stroke-linecap="round" stroke-linejoin="round"/>
<path d="M1297.08 222.274L1290.33 210.147L1283.65 200.461L1236.78 200.492L1189.89 200.473L1143.01 200.51L1096.12 200.504H1049.24L1002.37 200.529L955.484 200.517L908.607 200.535H861.718L814.841 200.523L767.97 200.548L721.087 200.523L674.21 200.548L627.321 200.523L580.438 200.535L533.561 200.517L486.677 200.529L439.8 200.504L392.924 200.523L346.04 200.485L299.164 200.504L252.28 200.485L205.397 200.467L199.247 210.166L192.965 222.293" stroke="white" stroke-opacity="0.7" stroke-width="0.75" stroke-linecap="round" stroke-linejoin="round"/>
<path d="M1242.89 210.141L1249.08 222.305" stroke="white" stroke-opacity="0.7" stroke-width="0.75" stroke-linecap="round" stroke-linejoin="round"/>
<path d="M240.969 222.306L246.684 210.166" stroke="white" stroke-opacity="0.7" stroke-width="0.75" stroke-linecap="round" stroke-linejoin="round"/>
<path d="M288.979 222.324L294.127 210.16L299.163 200.504L304.131 191.054L308.931 181.822L313.681 172.82L318.269 164.024L322.82 155.402L327.215 146.972L331.585 138.724L335.806 130.643L339.996 122.762L344.042 115.049L348.051 107.51L351.923 100.12L355.758 92.8617L359.469 85.7648L363.154 78.7861L366.709 71.9444L370.226 65.2584L373.625 58.6658L376.987 52.2225L380.242 45.9163L383.48 39.7157L386.611 33.615L389.73 27.6448L392.755 21.7868L395.775 16.0346L398.707 10.3944L401.62 4.82892L404.484 1.07501" stroke="white" stroke-opacity="0.7" stroke-width="0.75" stroke-linecap="round" stroke-linejoin="round"/>
<path d="M336.983 222.305L341.558 210.191L346.041 200.486L350.467 191.067L354.731 181.853L358.971 172.826L363.055 164.018L367.12 155.389L371.066 146.979L375.001 138.73L378.817 130.693L382.621 122.855L386.275 115.217L389.898 107.746L393.366 100.401L396.771 93.2165L400.095 86.0761L403.295 79.0726L406.476 72.1561L409.527 65.3643L412.515 58.7654L415.466 52.2724L418.298 45.9348L421.143 39.7282L423.889 33.646L426.646 27.6697L429.323 21.793L432.007 16.0408L434.603 10.3757L437.192 4.8537L439.738 1.07501" stroke="white" stroke-opacity="0.7" stroke-width="0.75" stroke-linecap="round" stroke-linejoin="round"/>
<path d="M9.59106 212.351L18.0078 202.658L64.7601 200.479L111.637 200.448L118.796 191.01L165.125 191.042L171.525 181.803L177.838 172.795L183.951 163.992L189.983 155.358L195.829 146.947L201.6 138.717L207.196 130.643L212.724 122.762L218.078 115.036L223.37 107.441L228.543 100.064L233.573 92.7991L238.56 85.6774L243.39 78.7299L248.172 71.882L252.828 65.2022L257.404 58.622L261.905 52.2036L300.234 52.1849L304.25 45.8787L308.228 39.6907L312.081 33.6023L349.334 33.6148H386.611L423.889 33.6458L461.197 33.6645L498.499 33.6832L535.814 33.733L573.079 33.8263L610.307 34.0443L647.472 34.3182L684.582 34.6232L721.66 34.7167L758.744 34.617L795.866 34.3306L833.038 34.0318L870.272 33.8263L907.549 33.733L944.851 33.6707L982.16 33.6645L1019.45 33.6335L1056.73 33.6272L1094 33.6085L1131.26 33.6023L1168.52 33.5898L1172.7 39.6845L1176.99 45.86L1181.33 52.1974L1219.65 52.1662L1224.49 58.6033L1229.38 65.1898L1234.41 71.8883L1239.5 78.6988L1244.71 85.6961L1250.05 92.7804L1255.44 100.033L1261.01 107.466L1266.66 115.005L1272.43 122.749L1278.36 130.631L1284.35 138.699L1290.55 146.947L1296.82 155.352L1303.26 163.992L1309.87 172.776L1316.57 181.791L1323.5 191.029L1330.54 200.442L1377.44 200.473L1424.17 202.633L1432.54 212.326" stroke="white" stroke-opacity="0.7" stroke-width="0.75" stroke-linecap="round" stroke-linejoin="round"/>
<path d="M384.986 222.342L388.995 210.172L392.924 200.523L396.808 191.073L400.543 181.84L404.26 172.832L407.858 164.023L411.469 155.407L414.999 146.972L418.572 138.78L422.064 130.892L425.557 123.316L428.919 116.007L432.193 108.916L435.281 101.844L438.269 94.76L441.114 87.551L443.835 80.3172L446.505 73.0895L449.045 65.9802L451.579 59.0638L454.013 52.4151L456.447 46.0092L458.831 39.7402L461.197 33.6643L463.575 27.6631L465.891 21.8112L468.232 16.059L470.498 10.3877L472.77 4.85954L474.999 1.08086" stroke="white" stroke-opacity="0.7" stroke-width="0.75" stroke-linecap="round" stroke-linejoin="round"/>
<path d="M432.99 222.318L436.439 210.203L439.8 200.504L443.137 191.067L446.35 181.866L449.562 172.839L452.687 164.005L455.887 155.402L459.074 147.06L462.361 139.209L465.679 131.92L468.923 125.327L472.098 119.189L475.03 113.144L477.788 106.831L480.272 99.9897L482.619 92.5629L484.772 84.5944L486.877 76.3271L488.85 68.1221L490.811 60.2843L492.722 52.9571L494.621 46.2089L496.57 39.8154L498.499 33.6834L500.498 27.6947L502.459 21.8178L504.451 16.0408L506.406 10.4131L508.342 4.84751L510.259 1.09375" stroke="white" stroke-opacity="0.7" stroke-width="0.75" stroke-linecap="round" stroke-linejoin="round"/>
<path d="M18.0077 202.658L26.2251 193.189L72.4546 191.035L118.796 191.01L125.725 181.809L132.554 172.782L139.178 163.967L145.702 155.376L152.04 146.928L158.29 138.68L164.347 130.643L170.33 122.724L176.138 115.011L181.872 107.46L187.437 100.033L192.94 92.7802L198.288 85.6896L203.548 78.6923L208.721 71.8818L213.745 65.1895L218.726 58.603L223.575 52.1909L261.905 52.2034L266.281 45.8784L270.62 39.6718L274.835 33.5834L312.081 33.6021L315.916 27.6194L319.626 21.7614L323.324 16.0216L326.91 10.3752L330.471 4.816L366.042 4.84093L369.23 1.05586L404.484 1.07456H439.738L474.999 1.08079L510.259 1.09325L545.513 1.08702L580.768 1.09325L616.028 1.10571L651.282 1.09948L686.536 1.10571L721.791 1.11179L757.045 1.10571L792.299 1.11179L827.553 1.10571H862.813L898.068 1.09948H933.328L968.582 1.08079H1003.84L1039.09 1.06833L1074.35 1.05586L1077.51 4.84093L1080.69 10.369L1083.95 16.0341L1087.23 21.7863L1090.61 27.6256L1094 33.6083L1097.5 39.6967L1101.02 45.8847L1104.66 52.2096L1108.31 58.6654L1112.09 65.2144L1115.89 71.9129L1119.83 78.7421L1123.79 85.702L1127.91 92.8238L1132.06 100.058L1136.36 107.478L1140.7 115.03L1145.2 122.762L1149.73 130.674L1154.42 138.723L1159.13 146.972L1164.02 155.389L1168.94 164.017L1174.03 172.807H1219.31L1264.59 172.801L1309.87 172.776L1355.12 172.795L1362.41 181.803L1369.81 191.004L1416.04 193.195L1424.17 202.633" stroke="white" stroke-opacity="0.7" stroke-width="0.75" stroke-linecap="round" stroke-linejoin="round"/>
<path d="M480.994 222.336L483.876 210.184L486.678 200.529L489.473 191.097L492.162 181.847L494.87 172.832L497.547 164.036L500.367 155.513L503.275 147.57L506.4 140.691L509.518 135.244L512.544 131.122L515.289 127.524L517.68 123.671L519.865 118.771L521.826 112.316L523.725 104.241L525.48 94.76L527.186 84.401L528.724 73.7868L530.156 63.6706L531.494 54.6003L532.857 46.831L534.308 39.9894L535.815 33.7328L537.421 27.6943L539.021 21.8236L540.676 16.0714L542.289 10.4002L543.914 4.87824L545.514 1.0871" stroke="white" stroke-opacity="0.7" stroke-width="0.75" stroke-linecap="round" stroke-linejoin="round"/>
<path d="M528.997 222.349L531.319 210.209L533.561 200.517L535.814 191.073L537.968 181.872L540.191 172.845L542.426 164.079L544.866 155.906L547.537 148.964" stroke="white" stroke-opacity="0.7" stroke-width="0.75" stroke-linecap="round" stroke-linejoin="round"/>
<path d="M577.001 222.33L578.757 210.197L580.438 200.535L582.15 191.104L583.781 181.847L585.486 172.876L587.248 164.304L589.296 156.752L591.593 151.635L593.984 150.602" stroke="white" stroke-opacity="0.7" stroke-width="0.75" stroke-linecap="round" stroke-linejoin="round"/>
<path d="M26.2252 193.189L34.2558 183.957L79.9251 181.791L87.2773 172.789L94.4115 163.986L101.434 155.345L108.257 146.941L114.974 138.705L121.511 130.618L127.935 122.756L134.191 115.011L140.367 107.441L146.362 100.052L152.282 92.7929L158.035 85.6649L163.718 78.7237L169.24 71.882L174.706 65.1773L180.023 58.6344L185.264 52.1724L223.575 52.1911L228.331 45.8475L233.025 39.672H270.62L308.228 39.6907H345.841L383.48 39.7155L421.143 39.728L458.831 39.7404L496.57 39.8152L534.308 39.9895L572.015 40.4502L609.622 41.2781L647.086 42.3675L684.414 43.3512L721.66 43.7372L758.919 43.3512L796.271 42.349L833.747 41.2718L871.361 40.4377L909.062 39.9958L946.787 39.8027L984.519 39.7591L1022.21 39.7155L1059.87 39.7093L1097.5 39.6969L1135.12 39.6658L1172.7 39.6845L1210.3 39.6471L1214.94 45.8725L1219.65 52.1662L1257.97 52.1849L1263.19 58.6282L1268.45 65.1773L1273.87 71.8758L1279.35 78.7299L1284.97 85.6711L1290.71 92.7991L1296.53 100.052L1302.53 107.447L1308.61 115.03L1314.84 122.737L1321.19 130.649L1327.67 138.699L1334.33 146.935L1341.1 155.376L1348.05 163.967L1355.12 172.795L1400.32 174.899L1408.07 183.938L1416.04 193.195" stroke="white" stroke-opacity="0.7" stroke-width="0.75" stroke-linecap="round" stroke-linejoin="round"/>
<path d="M625.011 222.355L626.194 210.216L627.321 200.523L628.485 191.086L629.575 181.884L630.757 172.926L631.99 164.59L633.503 157.948L635.227 155.147" stroke="white" stroke-opacity="0.7" stroke-width="0.75" stroke-linecap="round" stroke-linejoin="round"/>
<path d="M673.015 222.355L673.625 210.197L674.21 200.548L674.814 191.085L675.362 181.872L675.991 173.007L676.626 164.926L677.46 159.068" stroke="white" stroke-opacity="0.7" stroke-width="0.75" stroke-linecap="round" stroke-linejoin="round"/>
<path d="M610.238 153.135L600.272 146.455L562.969 123.129L523.725 104.241L482.619 92.5625L441.114 87.5511L400.095 86.0757L359.469 85.7645L319.091 85.7021L278.819 85.7084L238.56 85.6772L198.288 85.6897L158.035 85.6647L117.894 87.576" stroke="white" stroke-opacity="0.7" stroke-width="0.75" stroke-linecap="round" stroke-linejoin="round"/>
<path d="M34.2558 183.957L42.0936 174.905L49.757 166.071L57.2522 157.443L64.5857 148.989L71.7574 140.722L78.7733 132.647L85.6399 124.723L92.3633 116.984L98.9436 109.408L105.393 101.969L111.699 94.6977L117.894 87.5759L123.951 80.5848L129.896 73.737L135.717 67.0322L141.432 60.4395L147.034 53.9901L185.264 52.1722L190.382 45.8785L195.437 39.6656L233.025 39.6718L237.595 33.5959L274.835 33.5834L279.012 27.6381L283.071 21.7739L287.099 16.003L291.014 10.3441L326.91 10.3752L362.805 10.3628L398.707 10.3939L434.602 10.3752L470.498 10.3877L506.406 10.4126L542.289 10.4002H578.184L614.08 10.4313L649.969 10.4064L685.852 10.4189L721.747 10.4313L757.636 10.4126L793.525 10.4189L829.421 10.4313L865.31 10.4002L901.205 10.4189L937.101 10.4064L972.996 10.3877L1008.89 10.4002L1044.79 10.3752L1080.69 10.369L1116.58 10.3752L1152.48 10.3503L1156.4 16.003L1160.35 21.7739L1164.39 27.607L1168.52 33.5896H1205.74L1210.3 39.6469L1247.9 39.6718L1252.91 45.8536L1257.97 52.1847L1296.19 53.9777L1301.78 60.4333L1307.42 67.0322L1313.23 73.7494L1319.1 80.5786L1325.13 87.5821L1331.25 94.6977L1337.55 101.969L1343.92 109.421L1350.45 116.978L1357.12 124.747L1363.92 132.641L1370.9 140.74L1377.97 149.008L1385.28 157.431L1392.69 166.09L1400.32 174.899" stroke="white" stroke-opacity="0.7" stroke-width="0.75" stroke-linecap="round" stroke-linejoin="round"/>
<path d="M834.233 152.177L843.167 146.169L880.444 123.042L919.458 104.447L960.259 92.7928L1001.63 87.6568L1042.67 86.113L1083.33 85.7707L1123.79 85.7021L1164.15 85.6897L1204.47 85.6835L1244.71 85.6959L1284.97 85.671L1325.13 87.5822" stroke="white" stroke-opacity="0.7" stroke-width="0.75" stroke-linecap="round" stroke-linejoin="round"/>
<path d="M1174.03 172.807L1179.17 181.828L1184.49 191.066L1189.89 200.473L1195.45 210.178L1201.07 222.293" stroke="white" stroke-opacity="0.7" stroke-width="0.75" stroke-linecap="round" stroke-linejoin="round"/>
<path d="M566.711 146.026L558.699 141.419L517.68 123.671L475.03 113.144L432.193 108.917L389.898 107.746L348.051 107.51L306.435 107.466L264.893 107.479L223.37 107.441L181.872 107.46L140.367 107.441L98.9436 109.409" stroke="white" stroke-opacity="0.7" stroke-width="0.75" stroke-linecap="round" stroke-linejoin="round"/>
<path d="M147.035 53.9903L152.525 47.6528L157.923 41.4399L195.437 39.6658L200.355 33.5774L237.595 33.5961L242.114 27.601L279.012 27.6384L315.916 27.6197L352.82 27.6446H389.73L426.646 27.6695L463.575 27.6633L500.498 27.6944H537.42L574.318 27.7194L611.197 27.7691L648.051 27.8127L684.887 27.8935L721.71 27.8998L758.533 27.8935L795.374 27.8127L832.235 27.7753L869.114 27.7131L906.018 27.7007L942.934 27.6882L979.857 27.6695L1016.78 27.6633L1053.7 27.6508L1090.61 27.6259L1127.51 27.6384L1164.39 27.6072L1201.31 27.6134L1205.74 33.5898L1242.99 33.5711L1247.9 39.672L1285.4 41.4275L1290.76 47.6591L1296.19 53.9779" stroke="white" stroke-opacity="0.7" stroke-width="0.75" stroke-linecap="round" stroke-linejoin="round"/>
<path d="M157.923 41.44L163.208 35.3455L200.355 33.5775L205.223 27.626L242.115 27.6011L246.516 21.7368L250.88 16.0033H287.099L323.324 16.022H359.55L395.775 16.0344L432.007 16.0407L468.232 16.0592L504.451 16.0407L540.676 16.0717L576.902 16.0654H613.115L649.328 16.0841L685.54 16.0717L721.753 16.0779L757.96 16.0717L794.173 16.0841L830.386 16.0654L866.599 16.0779L902.824 16.0592H939.043L975.269 16.0469H1011.5L1047.73 16.022L1083.95 16.0344L1120.18 16.0095L1156.4 16.0033H1192.61L1196.9 21.7368L1201.31 27.6135H1238.2L1242.99 33.5712L1280.14 35.3516L1285.4 41.4275" stroke="white" stroke-opacity="0.7" stroke-width="0.75" stroke-linecap="round" stroke-linejoin="round"/>
<path d="M163.208 35.3454L168.4 29.3503L205.223 27.6258L209.96 21.7616L246.516 21.7367L283.071 21.7741L319.626 21.7616L356.194 21.7865H392.756L429.323 21.7928L465.891 21.8113L502.459 21.8175L539.02 21.8238L575.576 21.8362H612.112L648.649 21.8425L685.179 21.8674L721.703 21.8487L758.234 21.8736L794.764 21.8425L831.301 21.8362H867.844L904.399 21.8175H940.961L977.528 21.8052L1014.1 21.7928L1050.66 21.7865H1087.23L1123.79 21.7616L1160.35 21.7741L1196.9 21.7367L1233.45 21.7616L1238.2 27.6134L1275 29.344L1280.14 35.3515" stroke="white" stroke-opacity="0.7" stroke-width="0.75" stroke-linecap="round" stroke-linejoin="round"/>
<path d="M168.4 29.3504L173.499 23.4737L209.96 21.7617L214.661 15.9908L250.88 16.0033L255.119 10.3568L291.014 10.3444L294.893 4.82257L298.715 1.03751L333.969 1.0562H369.23" stroke="white" stroke-opacity="0.7" stroke-width="0.75" stroke-linecap="round" stroke-linejoin="round"/>
<path d="M173.498 23.4734L178.503 17.7087L214.66 15.9905L219.224 10.3316L255.119 10.3565L259.321 4.79108L294.893 4.82223L330.471 4.816L333.969 1.05586" stroke="white" stroke-opacity="0.7" stroke-width="0.75" stroke-linecap="round" stroke-linejoin="round"/>
<path d="M178.504 17.7089L183.422 12.0438L188.221 6.45965L193.009 2.18291L228.213 1L263.461 1.03739H298.715" stroke="white" stroke-opacity="0.7" stroke-width="0.75" stroke-linecap="round" stroke-linejoin="round"/>
<path d="M878.639 144.638L884.602 141.245L925.422 123.77L967.804 113.324L1010.47 108.991L1052.71 107.753L1094.65 107.504L1136.36 107.479L1177.96 107.466L1219.48 107.448L1261.01 107.466L1302.53 107.448L1343.92 109.421" stroke="white" stroke-opacity="0.7" stroke-width="0.75" stroke-linecap="round" stroke-linejoin="round"/>
<path d="M933.334 135.231L936.372 140.697L939.336 147.564L942.212 155.52L944.895 164.03L947.553 172.832L950.137 181.872L952.814 191.104L955.484 200.517L958.261 210.216L961.05 222.33" stroke="white" stroke-opacity="0.7" stroke-width="0.75" stroke-linecap="round" stroke-linejoin="round"/>
<path d="M679.794 158.215L680.149 152.183L681.6 128.464L683.411 99.8399L684.102 75.5735L684.277 56.4181L684.414 43.3511L684.582 34.6231L684.887 27.8934L685.179 21.8673L685.54 16.0715L685.852 10.419L686.213 4.88455L686.536 1.10587" stroke="white" stroke-opacity="0.7" stroke-width="0.75" stroke-linecap="round" stroke-linejoin="round"/>
<path d="M1215.36 1.01875L1219.81 4.82251L1255.32 6.4784" stroke="white" stroke-opacity="0.7" stroke-width="0.75" stroke-linecap="round" stroke-linejoin="round"/>
<path d="M1180.11 1.03125L1184.24 4.81008L1219.81 4.82255L1224.28 10.3506L1260.08 12.0314" stroke="white" stroke-opacity="0.7" stroke-width="0.75" stroke-linecap="round" stroke-linejoin="round"/>
<path d="M851.023 151.654L853.276 156.752L855.188 164.285L856.937 172.882L858.524 181.859L860.143 191.098L861.718 200.535L863.393 210.21L865.03 222.355" stroke="white" stroke-opacity="0.7" stroke-width="0.75" stroke-linecap="round" stroke-linejoin="round"/>
<path d="M892.378 144.358L895.111 148.965L897.707 155.912L900.029 164.092L902.239 172.851L904.33 181.866L906.478 191.079L908.607 200.535L910.823 210.191L913.04 222.355" stroke="white" stroke-opacity="0.7" stroke-width="0.75" stroke-linecap="round" stroke-linejoin="round"/>
<path d="M599.469 151.56L600.271 146.456L602.376 132.629L604.206 116.742L606.08 98.7131L607.661 80.3359L608.589 63.8076L609.08 50.7654L609.622 41.278L610.307 34.0442L611.197 27.769L612.112 21.8362L613.114 16.0653L614.079 10.4314L615.063 4.86585L616.028 1.10587" stroke="white" stroke-opacity="0.7" stroke-width="0.75" stroke-linecap="round" stroke-linejoin="round"/>
<path d="M1109.61 1.05586L1113.09 4.80977L1148.66 4.82223L1184.24 4.80977L1188.37 10.3316L1224.28 10.3503L1228.83 15.9843L1264.98 17.7149L1269.93 23.4671" stroke="white" stroke-opacity="0.7" stroke-width="0.75" stroke-linecap="round" stroke-linejoin="round"/>
<path d="M1039.09 1.06876L1041.94 4.84744L1044.79 10.3756L1047.73 16.0221L1050.66 21.7868L1053.7 27.651L1056.73 33.6274L1059.87 39.7094L1063.01 45.9038L1066.25 52.2412L1069.51 58.6596L1072.88 65.2459L1076.27 71.9631L1079.78 78.786L1083.33 85.771L1087.02 92.8679L1090.76 100.114L1094.65 107.504L1098.59 115.055L1102.68 122.775L1106.8 130.65L1111.05 138.718L1115.32 146.979L1119.72 155.402L1124.15 164.005L1128.74 172.839L1133.37 181.841L1138.15 191.048L1143.01 200.51L1148.01 210.16L1153.06 222.324" stroke="white" stroke-opacity="0.7" stroke-width="0.75" stroke-linecap="round" stroke-linejoin="round"/>
<path d="M1003.84 1.08086L1006.36 4.83477L1008.89 10.4002L1011.5 16.0466L1014.1 21.7926L1016.78 27.6631L1019.45 33.6333L1022.21 39.7153L1024.96 45.9469L1027.77 52.2533L1030.64 58.7587L1033.52 65.3887L1036.51 72.1557L1039.52 79.0845L1042.67 86.1129L1045.88 93.2224L1049.26 100.444L1052.71 107.752L1056.33 115.198L1060 122.855L1063.78 130.674L1067.61 138.742L1071.47 146.96L1075.42 155.401L1079.38 164.03L1083.45 172.826L1087.56 181.834L1091.82 191.073L1096.12 200.504L1100.59 210.178L1105.05 222.324" stroke="white" stroke-opacity="0.7" stroke-width="0.75" stroke-linecap="round" stroke-linejoin="round"/>
<path d="M561.245 144.601L557.279 142.602L557.061 142.521L554.49 141.6L537.215 135.4L515.289 127.524L472.098 119.189L428.918 116.008L386.275 115.217L344.042 115.049H301.996L260.031 115.024L218.078 115.036L176.138 115.012H134.191L92.3632 116.985" stroke="white" stroke-opacity="0.7" stroke-width="0.75" stroke-linecap="round" stroke-linejoin="round"/>
<path d="M968.582 1.08086L970.786 4.86577L972.996 10.3877L975.268 16.0466L977.528 21.8051L979.856 27.6693L982.16 33.6643L984.519 39.7589L986.841 45.9843L989.226 52.4214L991.585 59.0762L994.007 65.9677L996.466 73.1269L998.968 80.3794L1001.63 87.6568L1004.39 94.872L1007.33 101.944L1010.47 108.991L1013.7 116.076L1017.12 123.334L1020.55 130.904L1024.06 138.78L1027.54 146.978L1031.08 155.401L1034.57 164.017L1038.16 172.838L1041.76 181.871L1045.49 191.079L1049.24 200.504L1053.13 210.197L1057.06 222.318" stroke="white" stroke-opacity="0.7" stroke-width="0.75" stroke-linecap="round" stroke-linejoin="round"/>
<path d="M933.328 1.09961L935.215 4.85337L937.101 10.4065L939.043 16.059L940.961 21.8175L942.934 27.6881L944.851 33.6706L946.788 39.8026L948.68 46.2023L950.529 52.9505L952.403 60.2653L954.233 68.1592L956.151 76.414L958.118 84.7372L960.259 92.7928L962.581 100.257L965.059 107.086L967.804 113.324L970.712 119.282L973.855 125.376L977.055 131.957L980.33 139.197L983.511 147.09L986.68 155.401L989.749 164.023L992.861 172.851L995.955 181.847L999.149 191.073L1002.37 200.529L1005.7 210.184L1009.05 222.355" stroke="white" stroke-opacity="0.7" stroke-width="0.75" stroke-linecap="round" stroke-linejoin="round"/>
<path d="M898.068 1.09961L899.643 4.87829L901.206 10.419L902.824 16.059L904.399 21.8175L906.018 27.7006L907.549 33.7329L909.062 39.9956L910.45 46.8124L911.801 54.5816L913.09 63.652L914.441 73.7869L915.96 84.4696L917.603 94.9157L919.458 104.447L921.345 112.521L923.349 118.927L925.422 123.77L927.788 127.574L930.415 131.116L933.335 135.231L977.055 131.957L1020.55 130.905L1063.78 130.674L1106.8 130.649L1149.73 130.674L1192.61 130.643L1235.48 130.649L1278.36 130.631L1321.19 130.649L1363.92 132.641" stroke="white" stroke-opacity="0.7" stroke-width="0.75" stroke-linecap="round" stroke-linejoin="round"/>
<path d="M580.768 1.09375L579.498 4.87243L578.184 10.4006L576.902 16.0656L575.576 21.8365L574.318 27.7196L573.079 33.8266L572.015 40.4504L571.056 48.2943L570.209 58.1678L569.251 70.4504L567.968 84.3081L566.462 98.3774L564.75 111.544L562.969 123.129L561.332 132.131L559.969 138.226L558.699 141.419L557.279 142.602L555.449 142.515L553.793 142.073L512.544 131.123L468.923 125.327L425.557 123.316L382.621 122.855L339.996 122.762L297.526 122.781L255.119 122.743L212.724 122.762L170.33 122.725L127.935 122.756L85.64 124.723" stroke="white" stroke-opacity="0.7" stroke-width="0.75" stroke-linecap="round" stroke-linejoin="round"/>
<path d="M862.814 1.10587L864.071 4.86585L865.31 10.4003L866.599 16.0777L867.844 21.8362L869.114 27.713L870.272 33.8262L871.361 40.4376L872.264 48.2567L873.117 58.1301L874.038 70.4064L875.271 84.2703L876.821 98.3708L878.545 111.537L880.444 123.042L882.081 132.006L883.457 138.039L884.602 141.245L885.966 142.428L887.616 142.372L889.788 142.428L892.378 144.357L936.373 140.697L980.33 139.197L1024.06 138.78L1067.61 138.742L1111.05 138.717L1154.42 138.724H1197.75L1241.07 138.711L1284.35 138.699H1327.67L1370.9 140.741" stroke="white" stroke-opacity="0.7" stroke-width="0.75" stroke-linecap="round" stroke-linejoin="round"/>
<path d="M827.553 1.10587L828.499 4.89078L829.421 10.4314L830.386 16.0653L831.301 21.8362L832.235 27.7752L833.038 34.0317L833.747 41.2717L834.239 50.7469L834.743 63.7391L835.646 80.2488L837.184 98.626L839.157 116.58L841.012 132.424L843.166 146.169L843.926 151.112" stroke="white" stroke-opacity="0.7" stroke-width="0.75" stroke-linecap="round" stroke-linejoin="round"/>
<path d="M792.299 1.11212L792.928 4.87226L793.525 10.4192L794.173 16.0841L794.764 21.8426L795.374 27.8128L795.866 34.3307L796.271 42.349L796.47 53.7725L796.831 70.1826L797.79 91.0748L799.564 113.685L802.372 137.354L804.42 155.352" stroke="white" stroke-opacity="0.7" stroke-width="0.75" stroke-linecap="round" stroke-linejoin="round"/>
<path d="M757.045 1.10587L757.35 4.89078L757.636 10.4127L757.96 16.0715L758.234 21.8736L758.533 27.8934L758.744 34.6169L758.919 43.3511L758.981 56.3869L759.205 75.474L759.884 99.7092L761.757 128.396L763.058 152.177L763.388 158.221" stroke="white" stroke-opacity="0.7" stroke-width="0.75" stroke-linecap="round" stroke-linejoin="round"/>
<path d="M721.791 1.11212L721.778 4.87226L721.747 10.4316L721.753 16.0779L721.703 21.8488L721.71 27.8999L721.66 34.7167V43.7373L721.616 57.489L721.654 77.765L721.672 104.005L721.647 133.351L721.61 157.076L721.591 159.411" stroke="white" stroke-opacity="0.7" stroke-width="0.75" stroke-linecap="round" stroke-linejoin="round"/>
<path d="M807.333 155.147L809.045 157.942L810.446 164.615L811.666 172.92L812.725 181.878L813.808 191.104L814.841 200.523L815.943 210.222L817.033 222.337" stroke="white" stroke-opacity="0.7" stroke-width="0.75" stroke-linecap="round" stroke-linejoin="round"/>
<path d="M764.123 158.203L765.069 159.081L765.798 164.908L766.427 173.007L766.931 181.878L767.472 191.079L767.97 200.548L768.506 210.197L769.029 222.368" stroke="white" stroke-opacity="0.7" stroke-width="0.75" stroke-linecap="round" stroke-linejoin="round"/>
<path d="M721.249 159.423L721.255 159.529L721.249 160.556L721.211 165.038V173.019L721.149 181.89L721.143 191.11L721.087 200.523L721.062 210.222L721.025 222.336" stroke="white" stroke-opacity="0.7" stroke-width="0.75" stroke-linecap="round" stroke-linejoin="round"/>
<path d="M572.488 147.533L563.025 146.182L550.394 144.377L506.4 140.691L462.361 139.209L418.572 138.78L375.001 138.73L331.585 138.724L288.232 138.73L244.916 138.705L201.6 138.718L158.29 138.68L114.974 138.705L71.7574 140.722" stroke="white" stroke-opacity="0.7" stroke-width="0.75" stroke-linecap="round" stroke-linejoin="round"/>
<path d="M892.378 144.358L874.717 146.873L870.266 147.508" stroke="white" stroke-opacity="0.7" stroke-width="0.75" stroke-linecap="round" stroke-linejoin="round"/>
<path d="M851.023 151.654L835.789 152.868" stroke="white" stroke-opacity="0.7" stroke-width="0.75" stroke-linecap="round" stroke-linejoin="round"/>
<path d="M636.734 155.252L635.613 154.517L602.376 132.629L564.75 111.543L525.48 94.7599L484.773 84.5939L443.835 80.3171L403.295 79.072L363.154 78.7855L323.169 78.7359L283.251 78.7296H243.391L203.548 78.6922L163.718 78.7234L123.951 80.5848" stroke="white" stroke-opacity="0.7" stroke-width="0.75" stroke-linecap="round" stroke-linejoin="round"/>
<path d="M678.381 158.178L638.881 155.401L636.734 155.252L635.227 155.146L610.238 153.135L606.964 152.874L599.469 151.56L593.984 150.602L588.095 149.761L575.233 147.925L572.488 147.532L566.711 146.026L561.245 144.6L559.913 144.252L558.039 143.766L556.582 143.181L555.449 142.515L553.171 142.496L550.394 144.376L547.537 148.964L503.274 147.57L459.074 147.059L414.999 146.972L371.066 146.978L327.215 146.972L283.413 146.953L239.612 146.96L195.829 146.947L152.04 146.929L108.257 146.941L64.5858 148.989" stroke="white" stroke-opacity="0.7" stroke-width="0.75" stroke-linecap="round" stroke-linejoin="round"/>
<path d="M559.913 144.252L556.582 143.181L553.171 142.496L509.518 135.244L465.679 131.919L422.064 130.892L378.817 130.693L335.806 130.643L292.901 130.674L250.039 130.643H207.196H164.347L121.511 130.618L78.7734 132.648" stroke="white" stroke-opacity="0.7" stroke-width="0.75" stroke-linecap="round" stroke-linejoin="round"/>
</svg>
