<svg width="106" height="166" viewBox="0 0 106 166" fill="none" xmlns="http://www.w3.org/2000/svg">
<path d="M12.32 145.56L11.6129 144.853L12.32 145.56ZM18.68 145.56L19.3871 144.853H19.3871L18.68 145.56ZM20 165.26V166.26H21V165.26H20ZM17 165.26H16V166.26H17V165.26ZM16.56 147.7L15.8374 148.391L15.845 148.399L15.8529 148.407L16.56 147.7ZM14.44 147.68L13.7329 146.973L13.7329 146.973L14.44 147.68ZM12.68 163.94L11.9729 163.233V163.233L12.68 163.94ZM6.32 163.94L7.02711 163.233L7.02711 163.233L6.32 163.94ZM6.32 145.56L5.61289 144.853L6.32 145.56ZM10 144.24H11V143.24H10V144.24ZM10 147.24V148.24H11V147.24H10ZM8.44 161.82L7.71736 162.511L7.72504 162.519L7.73289 162.527L8.44 161.82ZM10.56 161.82L9.85289 161.113L9.85289 161.113L10.56 161.82ZM13.0271 146.267C13.7203 145.574 14.5263 145.24 15.5 145.24V143.24C13.9937 143.24 12.6797 143.786 11.6129 144.853L13.0271 146.267ZM15.5 145.24C16.4737 145.24 17.2797 145.574 17.9729 146.267L19.3871 144.853C18.3203 143.786 17.0063 143.24 15.5 143.24V145.24ZM17.9729 146.267C18.6661 146.96 19 147.766 19 148.74H21C21 147.234 20.4539 145.92 19.3871 144.853L17.9729 146.267ZM19 148.74V165.26H21V148.74H19ZM20 164.26H17V166.26H20V164.26ZM18 165.26V148.76H16V165.26H18ZM18 148.76C18 148.08 17.7472 147.473 17.2671 146.993L15.8529 148.407C15.9595 148.514 16 148.613 16 148.76H18ZM17.2826 147.009C16.8063 146.511 16.1944 146.24 15.5 146.24V148.24C15.6323 148.24 15.727 148.276 15.8374 148.391L17.2826 147.009ZM15.5 146.24C14.8204 146.24 14.213 146.493 13.7329 146.973L15.1471 148.387C15.2537 148.281 15.353 148.24 15.5 148.24V146.24ZM13.7329 146.973C13.2528 147.453 13 148.06 13 148.74H15C15 148.593 15.0405 148.494 15.1471 148.387L13.7329 146.973ZM13 148.74L13 160.74H15L15 148.74H13ZM13 160.74C13 161.73 12.6639 162.542 11.9729 163.233L13.3871 164.647C14.4561 163.578 15 162.256 15 160.74H13ZM11.9729 163.233C11.2797 163.926 10.4737 164.26 9.5 164.26V166.26C11.0063 166.26 12.3203 165.714 13.3871 164.647L11.9729 163.233ZM9.5 164.26C8.5263 164.26 7.72034 163.926 7.02711 163.233L5.61289 164.647C6.67966 165.714 7.9937 166.26 9.5 166.26V164.26ZM7.02711 163.233C6.33387 162.54 6 161.734 6 160.76H4C4 162.266 4.54612 163.58 5.61289 164.647L7.02711 163.233ZM6 160.76L6 148.76H4L4 160.76H6ZM6 148.76C6 147.77 6.33613 146.958 7.02711 146.267L5.61289 144.853C4.54387 145.922 4 147.244 4 148.76H6ZM7.02711 146.267C7.72034 145.574 8.5263 145.24 9.5 145.24V143.24C7.9937 143.24 6.67966 143.786 5.61289 144.853L7.02711 146.267ZM9.5 145.24H10V143.24H9.5V145.24ZM9 144.24V147.24H11V144.24H9ZM10 146.24H9.5V148.24H10V146.24ZM9.5 146.24C8.82037 146.24 8.213 146.493 7.73289 146.973L9.14711 148.387C9.25367 148.281 9.35297 148.24 9.5 148.24V146.24ZM7.73289 146.973C7.25279 147.453 7 148.06 7 148.74H9C9 148.593 9.04054 148.494 9.14711 148.387L7.73289 146.973ZM7 148.74L7 160.74H9L9 148.74H7ZM7 160.74C7 161.418 7.2513 162.024 7.71736 162.511L9.16264 161.129C9.04203 161.003 9 160.888 9 160.74H7ZM7.73289 162.527C8.21299 163.007 8.82037 163.26 9.5 163.26V161.26C9.35297 161.26 9.25367 161.219 9.14711 161.113L7.73289 162.527ZM9.5 163.26C10.1796 163.26 10.787 163.007 11.2671 162.527L9.85289 161.113C9.74633 161.219 9.64703 161.26 9.5 161.26V163.26ZM11.2671 162.527C11.7472 162.047 12 161.44 12 160.76H10C10 160.907 9.95946 161.006 9.85289 161.113L11.2671 162.527ZM12 160.76L12 148.76H10L10 160.76H12ZM12 148.76C12 147.77 12.3361 146.958 13.0271 146.267L11.6129 144.853C10.5439 145.922 10 147.244 10 148.76H12ZM20 139.5H21V138.5H20V139.5ZM20 142.5V143.5H21V142.5H20ZM5 142.5H4V143.5H5V142.5ZM5 139.5V138.5H4V139.5H5ZM19 139.5V142.5H21V139.5H19ZM20 141.5H5V143.5H20V141.5ZM6 142.5V139.5H4L4 142.5H6ZM5 140.5H20V138.5H5V140.5ZM12.32 117.312L13.0271 118.019L12.32 117.312ZM18.68 117.312L19.3871 116.605L18.68 117.312ZM18.68 135.672L19.3871 136.379L18.68 135.672ZM6.32 135.672L7.02711 134.965H7.02711L6.32 135.672ZM5 115.992L5 114.992H4V115.992H5ZM8 115.992H9V114.992H8L8 115.992ZM8.44 133.552L9.14711 132.845H9.14711L8.44 133.552ZM16.56 133.552L15.8529 132.845L16.56 133.552ZM14.44 119.432L13.7329 118.725L13.7329 118.725L14.44 119.432ZM14 132.492V133.492H15V132.492H14ZM11 132.492H10V133.492H11V132.492ZM13.0271 118.019C13.7203 117.326 14.5263 116.992 15.5 116.992V114.992C13.9937 114.992 12.6797 115.538 11.6129 116.605L13.0271 118.019ZM15.5 116.992C16.4737 116.992 17.2797 117.326 17.9729 118.019L19.3871 116.605C18.3203 115.538 17.0063 114.992 15.5 114.992V116.992ZM17.9729 118.019C18.6661 118.713 19 119.518 19 120.492H21C21 118.986 20.4539 117.672 19.3871 116.605L17.9729 118.019ZM19 120.492V132.492H21V120.492H19ZM19 132.492C19 133.466 18.6661 134.272 17.9729 134.965L19.3871 136.379C20.4539 135.313 21 133.998 21 132.492H19ZM17.9729 134.965C17.2797 135.658 16.4737 135.992 15.5 135.992V137.992C17.0063 137.992 18.3203 137.446 19.3871 136.379L17.9729 134.965ZM15.5 135.992H9.5V137.992H15.5V135.992ZM9.5 135.992C8.5263 135.992 7.72034 135.658 7.02711 134.965L5.61289 136.379C6.67966 137.446 7.9937 137.992 9.5 137.992V135.992ZM7.02711 134.965C6.33387 134.272 6 133.466 6 132.492H4C4 133.998 4.54612 135.313 5.61289 136.379L7.02711 134.965ZM6 132.492L6 115.992H4L4 132.492H6ZM5 116.992H8L8 114.992H5L5 116.992ZM7 115.992L7 132.492H9L9 115.992H7ZM7 132.492C7 133.172 7.25279 133.779 7.73289 134.259L9.14711 132.845C9.04054 132.739 9 132.639 9 132.492H7ZM7.73289 134.259C8.21299 134.739 8.82037 134.992 9.5 134.992V132.992C9.35297 132.992 9.25367 132.952 9.14711 132.845L7.73289 134.259ZM9.5 134.992H15.5V132.992H9.5V134.992ZM15.5 134.992C16.1796 134.992 16.787 134.739 17.2671 134.259L15.8529 132.845C15.7463 132.952 15.647 132.992 15.5 132.992V134.992ZM17.2671 134.259C17.7472 133.779 18 133.172 18 132.492H16C16 132.639 15.9595 132.739 15.8529 132.845L17.2671 134.259ZM18 132.492V120.492H16V132.492H18ZM18 120.492C18 119.813 17.7472 119.205 17.2671 118.725L15.8529 120.139C15.9595 120.246 16 120.345 16 120.492H18ZM17.2671 118.725C16.787 118.245 16.1796 117.992 15.5 117.992V119.992C15.647 119.992 15.7463 120.033 15.8529 120.139L17.2671 118.725ZM15.5 117.992C14.8204 117.992 14.213 118.245 13.7329 118.725L15.1471 120.139C15.2537 120.033 15.353 119.992 15.5 119.992V117.992ZM13.7329 118.725C13.2528 119.205 13 119.813 13 120.492H15C15 120.345 15.0405 120.246 15.1471 120.139L13.7329 118.725ZM13 120.492L13 132.492H15L15 120.492H13ZM14 131.492H11V133.492H14V131.492ZM12 132.492L12 120.492H10L10 132.492H12ZM12 120.492C12 119.518 12.3339 118.713 13.0271 118.019L11.6129 116.605C10.5461 117.672 10 118.986 10 120.492H12ZM18.68 94.3044L19.3871 93.5973L18.68 94.3044ZM18.68 112.664L19.3871 113.371L18.68 112.664ZM5 113.984H4V114.984H5V113.984ZM5 110.984V109.984H4V110.984H5ZM16.56 110.544L15.8529 109.837L16.56 110.544ZM5 95.9844H4V96.9844H5V95.9844ZM5 92.9844V91.9844H4V92.9844H5ZM15.5 93.9844C16.4737 93.9844 17.2797 94.3183 17.9729 95.0115L19.3871 93.5973C18.3203 92.5305 17.0063 91.9844 15.5 91.9844L15.5 93.9844ZM17.9729 95.0115C18.6661 95.7047 19 96.5107 19 97.4844H21C21 95.9781 20.4539 94.664 19.3871 93.5973L17.9729 95.0115ZM19 97.4844V109.484H21V97.4844H19ZM19 109.484C19 110.458 18.6661 111.264 17.9729 111.957L19.3871 113.371C20.4539 112.305 21 110.991 21 109.484H19ZM17.9729 111.957C17.2797 112.651 16.4737 112.984 15.5 112.984V114.984C17.0063 114.984 18.3203 114.438 19.3871 113.371L17.9729 111.957ZM15.5 112.984H5V114.984H15.5V112.984ZM6 113.984V110.984H4L4 113.984H6ZM5 111.984H15.5V109.984H5V111.984ZM15.5 111.984C16.1796 111.984 16.787 111.732 17.2671 111.251L15.8529 109.837C15.7463 109.944 15.647 109.984 15.5 109.984V111.984ZM17.2671 111.251C17.7472 110.771 18 110.164 18 109.484H16C16 109.631 15.9595 109.731 15.8529 109.837L17.2671 111.251ZM18 109.484V97.4844H16V109.484H18ZM18 97.4844C18 96.8047 17.7472 96.1974 17.2671 95.7173L15.8529 97.1315C15.9595 97.238 16 97.3373 16 97.4844H18ZM17.2671 95.7173C16.787 95.2372 16.1796 94.9844 15.5 94.9844V96.9844C15.647 96.9844 15.7463 97.0249 15.8529 97.1315L17.2671 95.7173ZM15.5 94.9844H5V96.9844H15.5V94.9844ZM6 95.9844V92.9844H4V95.9844H6ZM5 93.9844H15.5L15.5 91.9844H5V93.9844ZM20 88.4844H21V87.4844H20V88.4844ZM20 91.4844V92.4844H21V91.4844H20ZM5 91.4844H4V92.4844H5V91.4844ZM5 88.4844V87.4844H4V88.4844H5ZM19 88.4844V91.4844H21V88.4844H19ZM20 90.4844H5V92.4844H20V90.4844ZM6 91.4844V88.4844H4L4 91.4844H6ZM5 89.4844H20V87.4844H5V89.4844ZM14 64.9766H15L15 63.9766H14L14 64.9766ZM14 81.4766V82.4766H15V81.4766H14ZM11 81.4766H10V82.4766H11V81.4766ZM11 64.9766L11 63.9766H10L10 64.9766H11ZM20 64.9766H21V63.9766H20V64.9766ZM18.68 84.6566L19.3871 85.3637L18.68 84.6566ZM6.32 84.6566L7.02711 83.9495H7.02711L6.32 84.6566ZM5 64.9766V63.9766H4V64.9766H5ZM8 64.9766H9L9 63.9766H8V64.9766ZM8.44 82.5366L9.14711 81.8295H9.14711L8.44 82.5366ZM16.56 82.5366L15.8529 81.8295L16.56 82.5366ZM17 64.9766V63.9766H16V64.9766H17ZM13 64.9766V81.4766H15V64.9766H13ZM14 80.4766H11V82.4766H14V80.4766ZM12 81.4766V64.9766H10V81.4766H12ZM11 65.9766H14L14 63.9766H11L11 65.9766ZM19 64.9766L19 81.4766H21L21 64.9766H19ZM19 81.4766C19 82.4503 18.6661 83.2562 17.9729 83.9495L19.3871 85.3637C20.4539 84.2969 21 82.9829 21 81.4766H19ZM17.9729 83.9495C17.2797 84.6427 16.4737 84.9766 15.5 84.9766V86.9766C17.0063 86.9766 18.3203 86.4304 19.3871 85.3637L17.9729 83.9495ZM15.5 84.9766H9.5V86.9766H15.5V84.9766ZM9.5 84.9766C8.5263 84.9766 7.72034 84.6427 7.02711 83.9495L5.61289 85.3637C6.67966 86.4304 7.9937 86.9766 9.5 86.9766V84.9766ZM7.02711 83.9495C6.33387 83.2562 6 82.4503 6 81.4766H4C4 82.9829 4.54612 84.2969 5.61289 85.3637L7.02711 83.9495ZM6 81.4766L6 64.9766H4L4 81.4766H6ZM5 65.9766H8V63.9766H5V65.9766ZM7 64.9766L7 81.4766H9V64.9766H7ZM7 81.4766C7 82.1562 7.25279 82.7636 7.73289 83.2437L9.14711 81.8295C9.04054 81.7229 9 81.6236 9 81.4766H7ZM7.73289 83.2437C8.21299 83.7238 8.82037 83.9766 9.5 83.9766V81.9766C9.35297 81.9766 9.25367 81.936 9.14711 81.8295L7.73289 83.2437ZM9.5 83.9766H15.5V81.9766H9.5V83.9766ZM15.5 83.9766C16.1796 83.9766 16.787 83.7238 17.2671 83.2437L15.8529 81.8295C15.7463 81.936 15.647 81.9766 15.5 81.9766V83.9766ZM17.2671 83.2437C17.7472 82.7636 18 82.1562 18 81.4766H16C16 81.6236 15.9595 81.7229 15.8529 81.8295L17.2671 83.2437ZM18 81.4766L18 64.9766H16L16 81.4766H18ZM17 65.9766H20V63.9766H17V65.9766ZM20 41.9688H21V40.9688H20V41.9688ZM20 44.9688V45.9688H21V44.9688H20ZM8.44 45.4088L9.14711 46.1159H9.14711L8.44 45.4088ZM8.44 59.5287L9.14711 58.8216H9.14711L8.44 59.5287ZM20 59.9688H21V58.9688H20V59.9688ZM20 62.9688V63.9688H21V62.9688H20ZM6.32 61.6488L7.02711 60.9416H7.02711L6.32 61.6488ZM6.32 43.2887L7.02711 43.9959L6.32 43.2887ZM19 41.9688V44.9688H21V41.9688H19ZM20 43.9688H9.5V45.9688H20V43.9688ZM9.5 43.9688C8.82037 43.9688 8.21299 44.2215 7.73289 44.7016L9.14711 46.1159C9.25367 46.0093 9.35297 45.9688 9.5 45.9688V43.9688ZM7.73289 44.7016C7.25279 45.1817 7 45.7891 7 46.4688H9C9 46.3217 9.04054 46.2224 9.14711 46.1159L7.73289 44.7016ZM7 46.4688L7 58.4688H9V46.4688H7ZM7 58.4688C7 59.1484 7.25279 59.7558 7.73289 60.2359L9.14711 58.8216C9.04054 58.7151 9 58.6158 9 58.4688H7ZM7.73289 60.2359C8.21299 60.716 8.82037 60.9688 9.5 60.9688V58.9688C9.35297 58.9688 9.25367 58.9282 9.14711 58.8216L7.73289 60.2359ZM9.5 60.9688H20V58.9688H9.5V60.9688ZM19 59.9688V62.9688H21V59.9688H19ZM20 61.9688H9.5V63.9688H20V61.9688ZM9.5 61.9688C8.5263 61.9688 7.72034 61.6349 7.02711 60.9416L5.61289 62.3559C6.67966 63.4226 7.9937 63.9688 9.5 63.9688V61.9688ZM7.02711 60.9416C6.33387 60.2484 6 59.4425 6 58.4688H4C4 59.9751 4.54612 61.2891 5.61289 62.3559L7.02711 60.9416ZM6 58.4688L6 46.4688H4L4 58.4688H6ZM6 46.4688C6 45.495 6.33387 44.6891 7.02711 43.9959L5.61289 42.5816C4.54612 43.6484 4 44.9624 4 46.4688H6ZM7.02711 43.9959C7.72034 43.3026 8.5263 42.9688 9.5 42.9688V40.9688C7.9937 40.9688 6.67966 41.5149 5.61289 42.5816L7.02711 43.9959ZM9.5 42.9688H20V40.9688H9.5V42.9688ZM8 22.9688H9V21.9688H8V22.9688ZM8 29.0087V30.0087H9V29.0087H8ZM5 29.0087H4V30.0087H5V29.0087ZM5 22.9688V21.9688H4V22.9688H5ZM20 30.4688H21V29.4688H20V30.4688ZM20 33.4688V34.4688H21V33.4688H20ZM8 33.4688V32.4688H7V33.4688H8ZM8 40.9688V41.9688H9V40.9688H8ZM5 40.9688H4V41.9688H5V40.9688ZM5 30.4688V29.4688H4V30.4688H5ZM7 22.9688L7 29.0087H9V22.9688H7ZM8 28.0087H5L5 30.0087H8L8 28.0087ZM6 29.0087L6 22.9688H4L4 29.0087H6ZM5 23.9688H8V21.9688H5V23.9688ZM19 30.4688V33.4688H21V30.4688H19ZM20 32.4688H8V34.4688H20V32.4688ZM7 33.4688V40.9688H9L9 33.4688H7ZM8 39.9688H5V41.9688H8V39.9688ZM6 40.9688V30.4688H4L4 40.9688H6ZM5 31.4688H20V29.4688H5V31.4688ZM14 1.44141H15V0.441406H14V1.44141ZM14 17.9414V18.9414H15V17.9414H14ZM11 17.9414H10V18.9414H11V17.9414ZM11 1.44141V0.441406H10V1.44141H11ZM20 1.44141H21V0.441406H20V1.44141ZM18.68 21.1214L19.3871 21.8285L18.68 21.1214ZM6.32 21.1214L7.02711 20.4143H7.02711L6.32 21.1214ZM5 1.44141V0.441406H4V1.44141H5ZM8 1.44141H9V0.441406H8V1.44141ZM8.44 19.0014L9.14711 18.2943H9.14711L8.44 19.0014ZM16.56 19.0014L15.8529 18.2943L16.56 19.0014ZM17 1.44141V0.441406H16V1.44141H17ZM13 1.44141L13 17.9414H15L15 1.44141H13ZM14 16.9414H11V18.9414H14V16.9414ZM12 17.9414L12 1.44141H10L10 17.9414H12ZM11 2.44141H14V0.441406H11V2.44141ZM19 1.44141V17.9414H21V1.44141H19ZM19 17.9414C19 18.9151 18.6661 19.7211 17.9729 20.4143L19.3871 21.8285C20.4539 20.7617 21 19.4477 21 17.9414H19ZM17.9729 20.4143C17.2797 21.1075 16.4737 21.4414 15.5 21.4414V23.4414C17.0063 23.4414 18.3203 22.8953 19.3871 21.8285L17.9729 20.4143ZM15.5 21.4414H9.5V23.4414H15.5V21.4414ZM9.5 21.4414C8.5263 21.4414 7.72034 21.1075 7.02711 20.4143L5.61289 21.8285C6.67966 22.8953 7.9937 23.4414 9.5 23.4414V21.4414ZM7.02711 20.4143C6.33387 19.7211 6 18.9151 6 17.9414H4C4 19.4477 4.54612 20.7617 5.61289 21.8285L7.02711 20.4143ZM6 17.9414L6 1.44141H4L4 17.9414H6ZM5 2.44141H8V0.441406H5V2.44141ZM7 1.44141L7 17.9414H9L9 1.44141H7ZM7 17.9414C7 18.621 7.25279 19.2284 7.73289 19.7085L9.14711 18.2943C9.04054 18.1877 9 18.0884 9 17.9414H7ZM7.73289 19.7085C8.21299 20.1886 8.82037 20.4414 9.5 20.4414V18.4414C9.35297 18.4414 9.25367 18.4009 9.14711 18.2943L7.73289 19.7085ZM9.5 20.4414H15.5V18.4414H9.5V20.4414ZM15.5 20.4414C16.1796 20.4414 16.787 20.1886 17.2671 19.7085L15.8529 18.2943C15.7463 18.4009 15.647 18.4414 15.5 18.4414V20.4414ZM17.2671 19.7085C17.7472 19.2284 18 18.621 18 17.9414H16C16 18.0884 15.9595 18.1877 15.8529 18.2943L17.2671 19.7085ZM18 17.9414V1.44141H16V17.9414H18ZM17 2.44141H20V0.441406H17V2.44141Z" fill="white"/>
<rect x="43" y="51.5584" width="62.5126" height="62.8832" rx="31.2563" fill="#C6FF00"/>
<path d="M67.9995 66.079L77.0562 75.1357C78.3747 76.4542 77.4411 78.7114 75.5751 78.7101L59.2934 78.7101C56.9219 78.7089 54.9987 80.632 55 83.0035C55.0013 85.375 56.9231 87.2969 59.2934 87.2969L75.5739 87.2956C77.4398 87.2969 78.3734 89.5515 77.0549 90.87L67.9982 99.9267C71.3516 103.28 76.7882 103.28 80.1429 99.9255L90.9969 89.0714C94.3503 85.718 94.3516 80.2801 90.9982 76.9267L80.1454 66.0739C76.792 62.7205 71.3542 62.7193 67.9995 66.0739L67.9995 66.079Z" fill="black"/>
</svg>
