<svg width="15" height="165" viewBox="0 0 15 165" fill="none" xmlns="http://www.w3.org/2000/svg">
<path d="M7.32 144.56L6.61289 143.853L7.32 144.56ZM13.68 144.56L14.3871 143.853H14.3871L13.68 144.56ZM15 164.26V165.26H16V164.26H15ZM12 164.26H11V165.26H12V164.26ZM11.56 146.7L10.8374 147.391L10.845 147.399L10.8529 147.407L11.56 146.7ZM9.44 146.68L8.73289 145.973L8.73289 145.973L9.44 146.68ZM7.68 162.94L6.97289 162.233V162.233L7.68 162.94ZM1.32 162.94L2.02711 162.233L2.02711 162.233L1.32 162.94ZM1.32 144.56L0.612893 143.853L1.32 144.56ZM5 143.24H6V142.24H5V143.24ZM5 146.24V147.24H6V146.24H5ZM3.44 160.82L2.71736 161.511L2.72504 161.519L2.73289 161.527L3.44 160.82ZM5.56 160.82L4.85289 160.113L4.85289 160.113L5.56 160.82ZM8.02711 145.267C8.72034 144.574 9.5263 144.24 10.5 144.24V142.24C8.9937 142.24 7.67966 142.786 6.61289 143.853L8.02711 145.267ZM10.5 144.24C11.4737 144.24 12.2797 144.574 12.9729 145.267L14.3871 143.853C13.3203 142.786 12.0063 142.24 10.5 142.24V144.24ZM12.9729 145.267C13.6661 145.96 14 146.766 14 147.74H16C16 146.234 15.4539 144.92 14.3871 143.853L12.9729 145.267ZM14 147.74V164.26H16V147.74H14ZM15 163.26H12V165.26H15V163.26ZM13 164.26V147.76H11V164.26H13ZM13 147.76C13 147.08 12.7472 146.473 12.2671 145.993L10.8529 147.407C10.9595 147.514 11 147.613 11 147.76H13ZM12.2826 146.009C11.8063 145.511 11.1944 145.24 10.5 145.24V147.24C10.6323 147.24 10.727 147.276 10.8374 147.391L12.2826 146.009ZM10.5 145.24C9.82037 145.24 9.213 145.493 8.73289 145.973L10.1471 147.387C10.2537 147.281 10.353 147.24 10.5 147.24V145.24ZM8.73289 145.973C8.25279 146.453 8 147.06 8 147.74H10C10 147.593 10.0405 147.494 10.1471 147.387L8.73289 145.973ZM8 147.74L8 159.74H10L10 147.74H8ZM8 159.74C8 160.73 7.66387 161.542 6.97289 162.233L8.38711 163.647C9.45613 162.578 10 161.256 10 159.74H8ZM6.97289 162.233C6.27966 162.926 5.4737 163.26 4.5 163.26V165.26C6.0063 165.26 7.32034 164.714 8.38711 163.647L6.97289 162.233ZM4.5 163.26C3.5263 163.26 2.72034 162.926 2.02711 162.233L0.612893 163.647C1.67966 164.714 2.9937 165.26 4.5 165.26V163.26ZM2.02711 162.233C1.33387 161.54 0.999999 160.734 0.999999 159.76H-1C-1 161.266 -0.453876 162.58 0.612893 163.647L2.02711 162.233ZM0.999999 159.76L0.999999 147.76H-1L-1 159.76H0.999999ZM0.999999 147.76C0.999999 146.77 1.33613 145.958 2.02711 145.267L0.612893 143.853C-0.456135 144.922 -1 146.244 -1 147.76H0.999999ZM2.02711 145.267C2.72034 144.574 3.5263 144.24 4.5 144.24V142.24C2.9937 142.24 1.67966 142.786 0.612893 143.853L2.02711 145.267ZM4.5 144.24H5V142.24H4.5V144.24ZM4 143.24V146.24H6V143.24H4ZM5 145.24H4.5V147.24H5V145.24ZM4.5 145.24C3.82037 145.24 3.213 145.493 2.73289 145.973L4.14711 147.387C4.25367 147.281 4.35297 147.24 4.5 147.24V145.24ZM2.73289 145.973C2.25279 146.453 2 147.06 2 147.74H4C4 147.593 4.04054 147.494 4.14711 147.387L2.73289 145.973ZM2 147.74L2 159.74H4L4 147.74H2ZM2 159.74C2 160.418 2.2513 161.024 2.71736 161.511L4.16264 160.129C4.04203 160.003 4 159.888 4 159.74H2ZM2.73289 161.527C3.21299 162.007 3.82037 162.26 4.5 162.26V160.26C4.35297 160.26 4.25367 160.219 4.14711 160.113L2.73289 161.527ZM4.5 162.26C5.17963 162.26 5.787 162.007 6.26711 161.527L4.85289 160.113C4.74633 160.219 4.64703 160.26 4.5 160.26V162.26ZM6.26711 161.527C6.74721 161.047 7 160.44 7 159.76H5C5 159.907 4.95946 160.006 4.85289 160.113L6.26711 161.527ZM7 159.76L7 147.76H5L5 159.76H7ZM7 147.76C7 146.77 7.33613 145.958 8.02711 145.267L6.61289 143.853C5.54387 144.922 5 146.244 5 147.76H7ZM15 138.5H16V137.5H15V138.5ZM15 141.5V142.5H16V141.5H15ZM-9.53674e-07 141.5H-1V142.5H-9.53674e-07V141.5ZM-9.53674e-07 138.5V137.5H-1V138.5H-9.53674e-07ZM14 138.5V141.5H16V138.5H14ZM15 140.5H-9.53674e-07V142.5H15V140.5ZM0.999999 141.5V138.5H-1L-1 141.5H0.999999ZM-9.53674e-07 139.5H15V137.5H-9.53674e-07V139.5ZM7.32 116.312L8.02711 117.019L7.32 116.312ZM13.68 116.312L14.3871 115.605L13.68 116.312ZM13.68 134.672L14.3871 135.379L13.68 134.672ZM1.32 134.672L2.02711 133.965H2.02711L1.32 134.672ZM-9.53674e-07 114.992L-9.53674e-07 113.992H-1V114.992H-9.53674e-07ZM3 114.992H4V113.992H3L3 114.992ZM3.44 132.552L4.14711 131.845H4.14711L3.44 132.552ZM11.56 132.552L10.8529 131.845L11.56 132.552ZM9.44 118.432L8.73289 117.725L8.73289 117.725L9.44 118.432ZM9 131.492V132.492H10V131.492H9ZM6 131.492H5V132.492H6V131.492ZM8.02711 117.019C8.72034 116.326 9.5263 115.992 10.5 115.992V113.992C8.9937 113.992 7.67966 114.538 6.61289 115.605L8.02711 117.019ZM10.5 115.992C11.4737 115.992 12.2797 116.326 12.9729 117.019L14.3871 115.605C13.3203 114.538 12.0063 113.992 10.5 113.992V115.992ZM12.9729 117.019C13.6661 117.713 14 118.518 14 119.492H16C16 117.986 15.4539 116.672 14.3871 115.605L12.9729 117.019ZM14 119.492V131.492H16V119.492H14ZM14 131.492C14 132.466 13.6661 133.272 12.9729 133.965L14.3871 135.379C15.4539 134.313 16 132.998 16 131.492H14ZM12.9729 133.965C12.2797 134.658 11.4737 134.992 10.5 134.992V136.992C12.0063 136.992 13.3203 136.446 14.3871 135.379L12.9729 133.965ZM10.5 134.992H4.5V136.992H10.5V134.992ZM4.5 134.992C3.5263 134.992 2.72034 134.658 2.02711 133.965L0.612893 135.379C1.67966 136.446 2.9937 136.992 4.5 136.992V134.992ZM2.02711 133.965C1.33387 133.272 0.999999 132.466 0.999999 131.492H-1C-1 132.998 -0.453876 134.313 0.612893 135.379L2.02711 133.965ZM0.999999 131.492L0.999999 114.992H-1L-1 131.492H0.999999ZM-9.53674e-07 115.992H3L3 113.992H-9.53674e-07L-9.53674e-07 115.992ZM2 114.992L2 131.492H4L4 114.992H2ZM2 131.492C2 132.172 2.25279 132.779 2.73289 133.259L4.14711 131.845C4.04054 131.739 4 131.639 4 131.492H2ZM2.73289 133.259C3.21299 133.739 3.82037 133.992 4.5 133.992V131.992C4.35297 131.992 4.25367 131.952 4.14711 131.845L2.73289 133.259ZM4.5 133.992H10.5V131.992H4.5V133.992ZM10.5 133.992C11.1796 133.992 11.787 133.739 12.2671 133.259L10.8529 131.845C10.7463 131.952 10.647 131.992 10.5 131.992V133.992ZM12.2671 133.259C12.7472 132.779 13 132.172 13 131.492H11C11 131.639 10.9595 131.739 10.8529 131.845L12.2671 133.259ZM13 131.492V119.492H11V131.492H13ZM13 119.492C13 118.813 12.7472 118.205 12.2671 117.725L10.8529 119.139C10.9595 119.246 11 119.345 11 119.492H13ZM12.2671 117.725C11.787 117.245 11.1796 116.992 10.5 116.992V118.992C10.647 118.992 10.7463 119.033 10.8529 119.139L12.2671 117.725ZM10.5 116.992C9.82037 116.992 9.21299 117.245 8.73289 117.725L10.1471 119.139C10.2537 119.033 10.353 118.992 10.5 118.992V116.992ZM8.73289 117.725C8.25279 118.205 8 118.813 8 119.492H10C10 119.345 10.0405 119.246 10.1471 119.139L8.73289 117.725ZM8 119.492L8 131.492H10L10 119.492H8ZM9 130.492H6V132.492H9V130.492ZM7 131.492L7 119.492H5L5 131.492H7ZM7 119.492C7 118.518 7.33387 117.713 8.02711 117.019L6.61289 115.605C5.54612 116.672 5 117.986 5 119.492H7ZM13.68 93.3044L14.3871 92.5973L13.68 93.3044ZM13.68 111.664L14.3871 112.371L13.68 111.664ZM-9.53674e-07 112.984H-1V113.984H-9.53674e-07V112.984ZM-9.53674e-07 109.984V108.984H-1V109.984H-9.53674e-07ZM11.56 109.544L10.8529 108.837L11.56 109.544ZM-9.53674e-07 94.9844H-1V95.9844H-9.53674e-07V94.9844ZM-9.53674e-07 91.9844V90.9844H-1V91.9844H-9.53674e-07ZM10.5 92.9844C11.4737 92.9844 12.2797 93.3183 12.9729 94.0115L14.3871 92.5973C13.3203 91.5305 12.0063 90.9844 10.5 90.9844L10.5 92.9844ZM12.9729 94.0115C13.6661 94.7047 14 95.5107 14 96.4844H16C16 94.9781 15.4539 93.664 14.3871 92.5973L12.9729 94.0115ZM14 96.4844V108.484H16V96.4844H14ZM14 108.484C14 109.458 13.6661 110.264 12.9729 110.957L14.3871 112.371C15.4539 111.305 16 109.991 16 108.484H14ZM12.9729 110.957C12.2797 111.651 11.4737 111.984 10.5 111.984V113.984C12.0063 113.984 13.3203 113.438 14.3871 112.371L12.9729 110.957ZM10.5 111.984H-9.53674e-07V113.984H10.5V111.984ZM0.999999 112.984V109.984H-1L-1 112.984H0.999999ZM-9.53674e-07 110.984H10.5V108.984H-9.53674e-07V110.984ZM10.5 110.984C11.1796 110.984 11.787 110.732 12.2671 110.251L10.8529 108.837C10.7463 108.944 10.647 108.984 10.5 108.984V110.984ZM12.2671 110.251C12.7472 109.771 13 109.164 13 108.484H11C11 108.631 10.9595 108.731 10.8529 108.837L12.2671 110.251ZM13 108.484V96.4844H11V108.484H13ZM13 96.4844C13 95.8047 12.7472 95.1974 12.2671 94.7173L10.8529 96.1315C10.9595 96.238 11 96.3373 11 96.4844H13ZM12.2671 94.7173C11.787 94.2372 11.1796 93.9844 10.5 93.9844V95.9844C10.647 95.9844 10.7463 96.0249 10.8529 96.1315L12.2671 94.7173ZM10.5 93.9844H-9.53674e-07V95.9844H10.5V93.9844ZM0.999999 94.9844V91.9844H-1V94.9844H0.999999ZM-9.53674e-07 92.9844H10.5L10.5 90.9844H-9.53674e-07V92.9844ZM15 87.4844H16V86.4844H15V87.4844ZM15 90.4844V91.4844H16V90.4844H15ZM-9.53674e-07 90.4844H-1V91.4844H-9.53674e-07V90.4844ZM-9.53674e-07 87.4844V86.4844H-1V87.4844H-9.53674e-07ZM14 87.4844V90.4844H16V87.4844H14ZM15 89.4844H-9.53674e-07V91.4844H15V89.4844ZM0.999999 90.4844V87.4844H-1L-1 90.4844H0.999999ZM-9.53674e-07 88.4844H15V86.4844H-9.53674e-07V88.4844ZM9 63.9766H10L10 62.9766H9L9 63.9766ZM9 80.4766V81.4766H10V80.4766H9ZM6 80.4766H5V81.4766H6V80.4766ZM6 63.9766L6 62.9766H5L5 63.9766H6ZM15 63.9766H16V62.9766H15V63.9766ZM13.68 83.6566L14.3871 84.3637L13.68 83.6566ZM1.32 83.6566L2.02711 82.9495H2.02711L1.32 83.6566ZM-9.53674e-07 63.9766V62.9766H-1V63.9766H-9.53674e-07ZM3 63.9766H4L4 62.9766H3V63.9766ZM3.44 81.5366L4.14711 80.8295H4.14711L3.44 81.5366ZM11.56 81.5366L10.8529 80.8295L11.56 81.5366ZM12 63.9766V62.9766H11V63.9766H12ZM8 63.9766V80.4766H10V63.9766H8ZM9 79.4766H6V81.4766H9V79.4766ZM7 80.4766V63.9766H5V80.4766H7ZM6 64.9766H9L9 62.9766H6L6 64.9766ZM14 63.9766L14 80.4766H16L16 63.9766H14ZM14 80.4766C14 81.4503 13.6661 82.2562 12.9729 82.9495L14.3871 84.3637C15.4539 83.2969 16 81.9829 16 80.4766H14ZM12.9729 82.9495C12.2797 83.6427 11.4737 83.9766 10.5 83.9766V85.9766C12.0063 85.9766 13.3203 85.4304 14.3871 84.3637L12.9729 82.9495ZM10.5 83.9766H4.5V85.9766H10.5V83.9766ZM4.5 83.9766C3.5263 83.9766 2.72034 83.6427 2.02711 82.9495L0.612893 84.3637C1.67966 85.4304 2.9937 85.9766 4.5 85.9766V83.9766ZM2.02711 82.9495C1.33387 82.2562 0.999999 81.4503 0.999999 80.4766H-1C-1 81.9829 -0.453876 83.2969 0.612893 84.3637L2.02711 82.9495ZM0.999999 80.4766L0.999999 63.9766H-1L-1 80.4766H0.999999ZM-9.53674e-07 64.9766H3V62.9766H-9.53674e-07V64.9766ZM2 63.9766L2 80.4766H4V63.9766H2ZM2 80.4766C2 81.1562 2.25279 81.7636 2.73289 82.2437L4.14711 80.8295C4.04054 80.7229 4 80.6236 4 80.4766H2ZM2.73289 82.2437C3.21299 82.7238 3.82037 82.9766 4.5 82.9766V80.9766C4.35297 80.9766 4.25367 80.936 4.14711 80.8295L2.73289 82.2437ZM4.5 82.9766H10.5V80.9766H4.5V82.9766ZM10.5 82.9766C11.1796 82.9766 11.787 82.7238 12.2671 82.2437L10.8529 80.8295C10.7463 80.936 10.647 80.9766 10.5 80.9766V82.9766ZM12.2671 82.2437C12.7472 81.7636 13 81.1562 13 80.4766H11C11 80.6236 10.9595 80.7229 10.8529 80.8295L12.2671 82.2437ZM13 80.4766L13 63.9766H11L11 80.4766H13ZM12 64.9766H15V62.9766H12V64.9766ZM15 40.9688H16V39.9688H15V40.9688ZM15 43.9688V44.9688H16V43.9688H15ZM3.44 44.4088L4.14711 45.1159H4.14711L3.44 44.4088ZM3.44 58.5287L4.14711 57.8216H4.14711L3.44 58.5287ZM15 58.9688H16V57.9688H15V58.9688ZM15 61.9688V62.9688H16V61.9688H15ZM1.32 60.6488L2.02711 59.9416H2.02711L1.32 60.6488ZM1.32 42.2887L2.02711 42.9959L1.32 42.2887ZM14 40.9688V43.9688H16V40.9688H14ZM15 42.9688H4.5V44.9688H15V42.9688ZM4.5 42.9688C3.82037 42.9688 3.21299 43.2215 2.73289 43.7016L4.14711 45.1159C4.25367 45.0093 4.35297 44.9688 4.5 44.9688V42.9688ZM2.73289 43.7016C2.25279 44.1817 2 44.7891 2 45.4688H4C4 45.3217 4.04054 45.2224 4.14711 45.1159L2.73289 43.7016ZM2 45.4688L2 57.4688H4V45.4688H2ZM2 57.4688C2 58.1484 2.25279 58.7558 2.73289 59.2359L4.14711 57.8216C4.04054 57.7151 4 57.6158 4 57.4688H2ZM2.73289 59.2359C3.21299 59.716 3.82037 59.9688 4.5 59.9688V57.9688C4.35297 57.9688 4.25367 57.9282 4.14711 57.8216L2.73289 59.2359ZM4.5 59.9688H15V57.9688H4.5V59.9688ZM14 58.9688V61.9688H16V58.9688H14ZM15 60.9688H4.5V62.9688H15V60.9688ZM4.5 60.9688C3.5263 60.9688 2.72034 60.6349 2.02711 59.9416L0.612893 61.3559C1.67966 62.4226 2.9937 62.9688 4.5 62.9688V60.9688ZM2.02711 59.9416C1.33387 59.2484 0.999999 58.4425 0.999999 57.4688H-1C-1 58.9751 -0.453876 60.2891 0.612893 61.3559L2.02711 59.9416ZM0.999999 57.4688L0.999999 45.4688H-1L-1 57.4688H0.999999ZM0.999999 45.4688C0.999999 44.495 1.33387 43.6891 2.02711 42.9959L0.612893 41.5816C-0.453876 42.6484 -1 43.9624 -1 45.4688H0.999999ZM2.02711 42.9959C2.72034 42.3026 3.5263 41.9688 4.5 41.9688V39.9688C2.9937 39.9688 1.67966 40.5149 0.612893 41.5816L2.02711 42.9959ZM4.5 41.9688H15V39.9688H4.5V41.9688ZM3 21.9688H4V20.9688H3V21.9688ZM3 28.0087V29.0087H4V28.0087H3ZM-9.53674e-07 28.0087H-1V29.0087H-9.53674e-07V28.0087ZM-9.53674e-07 21.9688V20.9688H-1V21.9688H-9.53674e-07ZM15 29.4688H16V28.4688H15V29.4688ZM15 32.4688V33.4688H16V32.4688H15ZM3 32.4688V31.4688H2V32.4688H3ZM3 39.9688V40.9688H4V39.9688H3ZM-9.53674e-07 39.9688H-1V40.9688H-9.53674e-07V39.9688ZM-9.53674e-07 29.4688V28.4688H-1V29.4688H-9.53674e-07ZM2 21.9688L2 28.0087H4V21.9688H2ZM3 27.0087H-9.53674e-07L-9.53674e-07 29.0087H3L3 27.0087ZM0.999999 28.0087L0.999999 21.9688H-1L-1 28.0087H0.999999ZM-9.53674e-07 22.9688H3V20.9688H-9.53674e-07V22.9688ZM14 29.4688V32.4688H16V29.4688H14ZM15 31.4688H3V33.4688H15V31.4688ZM2 32.4688V39.9688H4L4 32.4688H2ZM3 38.9688H-9.53674e-07V40.9688H3V38.9688ZM0.999999 39.9688V29.4688H-1L-1 39.9688H0.999999ZM-9.53674e-07 30.4688H15V28.4688H-9.53674e-07V30.4688ZM9 0.441406H10V-0.558594H9V0.441406ZM9 16.9414V17.9414H10V16.9414H9ZM6 16.9414H5V17.9414H6V16.9414ZM6 0.441406V-0.558594H5V0.441406H6ZM15 0.441406H16V-0.558594H15V0.441406ZM13.68 20.1214L14.3871 20.8285L13.68 20.1214ZM1.32 20.1214L2.02711 19.4143H2.02711L1.32 20.1214ZM-9.53674e-07 0.441406V-0.558594H-1V0.441406H-9.53674e-07ZM3 0.441406H4V-0.558594H3V0.441406ZM3.44 18.0014L4.14711 17.2943H4.14711L3.44 18.0014ZM11.56 18.0014L10.8529 17.2943L11.56 18.0014ZM12 0.441406V-0.558594H11V0.441406H12ZM8 0.441406L8 16.9414H10L10 0.441406H8ZM9 15.9414H6V17.9414H9V15.9414ZM7 16.9414L7 0.441406H5L5 16.9414H7ZM6 1.44141H9V-0.558594H6V1.44141ZM14 0.441406V16.9414H16V0.441406H14ZM14 16.9414C14 17.9151 13.6661 18.7211 12.9729 19.4143L14.3871 20.8285C15.4539 19.7617 16 18.4477 16 16.9414H14ZM12.9729 19.4143C12.2797 20.1075 11.4737 20.4414 10.5 20.4414V22.4414C12.0063 22.4414 13.3203 21.8953 14.3871 20.8285L12.9729 19.4143ZM10.5 20.4414H4.5V22.4414H10.5V20.4414ZM4.5 20.4414C3.5263 20.4414 2.72034 20.1075 2.02711 19.4143L0.612893 20.8285C1.67966 21.8953 2.9937 22.4414 4.5 22.4414V20.4414ZM2.02711 19.4143C1.33387 18.7211 0.999999 17.9151 0.999999 16.9414H-1C-1 18.4477 -0.453876 19.7617 0.612893 20.8285L2.02711 19.4143ZM0.999999 16.9414L0.999999 0.441406H-1L-1 16.9414H0.999999ZM-9.53674e-07 1.44141H3V-0.558594H-9.53674e-07V1.44141ZM2 0.441406L2 16.9414H4L4 0.441406H2ZM2 16.9414C2 17.621 2.25279 18.2284 2.73289 18.7085L4.14711 17.2943C4.04054 17.1877 4 17.0884 4 16.9414H2ZM2.73289 18.7085C3.21299 19.1886 3.82037 19.4414 4.5 19.4414V17.4414C4.35297 17.4414 4.25367 17.4009 4.14711 17.2943L2.73289 18.7085ZM4.5 19.4414H10.5V17.4414H4.5V19.4414ZM10.5 19.4414C11.1796 19.4414 11.787 19.1886 12.2671 18.7085L10.8529 17.2943C10.7463 17.4009 10.647 17.4414 10.5 17.4414V19.4414ZM12.2671 18.7085C12.7472 18.2284 13 17.621 13 16.9414H11C11 17.0884 10.9595 17.1877 10.8529 17.2943L12.2671 18.7085ZM13 16.9414V0.441406H11V16.9414H13ZM12 1.44141H15V-0.558594H12V1.44141Z" fill="white"/>
</svg>
