<svg width="63" height="64" viewBox="0 0 63 64" fill="none" xmlns="http://www.w3.org/2000/svg">
<rect y="0.558395" width="62.5126" height="62.8832" rx="31.2563" fill="#C6FF00"/>
<path d="M24.9995 15.079L34.0562 24.1357C35.3747 25.4542 34.4411 27.7114 32.5751 27.7101L16.2934 27.7101C13.9219 27.7089 11.9987 29.632 12 32.0035C12.0013 34.375 13.9231 36.2969 16.2934 36.2969L32.5739 36.2956C34.4398 36.2969 35.3734 38.5515 34.0549 39.87L24.9982 48.9267C28.3516 52.2801 33.7882 52.2801 37.1429 48.9255L47.9969 38.0714C51.3503 34.718 51.3516 29.2801 47.9982 25.9267L37.1454 15.0739C33.792 11.7205 28.3542 11.7193 24.9995 15.0739L24.9995 15.079Z" fill="black"/>
</svg>
