<svg width="24" height="24" viewBox="0 0 24 24" fill="none" xmlns="http://www.w3.org/2000/svg">
<path d="M12.4318 13.2045V7.99999C12.4318 7.74999 12.2273 7.56818 12 7.56818C11.7727 7.56818 11.5682 7.77272 11.5682 7.99999V13.2045C7.15908 13.4318 3.63635 17.0909 3.63635 21.5682C3.63635 21.7954 3.81817 22 4.06817 22H19.9318C20.1818 22 20.3636 21.7954 20.3636 21.5682C20.3636 17.0909 16.8409 13.4318 12.4318 13.2045ZM4.52272 21.1364C4.74999 17.2045 8.02272 14.0682 12 14.0682C15.9773 14.0682 19.25 17.2045 19.4773 21.1364H4.52272Z" fill="white"/>
<path d="M20.7273 8.43182H12C11.75 8.43182 11.5682 8.22727 11.5682 8V2.43182C11.5682 2.20455 11.75 2 12 2H20.7273C20.8864 2 21.0227 2.09091 21.1137 2.22727C21.1818 2.36364 21.1818 2.52273 21.1137 2.65909L19.6591 5.22727L21.1137 7.79545C21.1818 7.93182 21.1818 8.09091 21.1137 8.22727C21.0455 8.36364 20.8864 8.43182 20.7273 8.43182ZM12.4318 7.54545H19.9773L18.7727 5.43182C18.7046 5.29545 18.7046 5.13636 18.7727 5L19.9773 2.88636H12.4318V7.54545Z" fill="#C6FF00"/>
<path d="M21.5682 13.1818H20.8182V12.4318C20.8182 12.1818 20.6136 12 20.3864 12C20.1364 12 19.9546 12.2045 19.9546 12.4318V13.1818H19.2046C18.9546 13.1818 18.7727 13.3864 18.7727 13.6136C18.7727 13.8636 18.9773 14.0455 19.2046 14.0455H19.9546V14.7955C19.9546 15.0455 20.1591 15.2273 20.3864 15.2273C20.6364 15.2273 20.8182 15.0227 20.8182 14.7955V14.0455H21.5682C21.8182 14.0455 22 13.8409 22 13.6136C22 13.3864 21.7955 13.1818 21.5682 13.1818Z" fill="#C6FF00"/>
<path d="M4.81818 12.3864H4.06818V11.6364C4.06818 11.3864 3.86364 11.2045 3.63636 11.2045C3.40909 11.2045 3.20455 11.4091 3.20455 11.6364V12.3864H2.43182C2.18182 12.3864 2 12.5909 2 12.8182C2 13.0682 2.20455 13.25 2.43182 13.25H3.18182V14C3.18182 14.25 3.38636 14.4318 3.61364 14.4318C3.84091 14.4318 4.04545 14.2273 4.04545 14V13.25H4.79545C5.04545 13.25 5.22727 13.0455 5.22727 12.8182C5.25 12.5909 5.06818 12.3864 4.81818 12.3864Z" fill="#C6FF00"/>
<path d="M9.22725 3.65908H8.47725V2.90908C8.47725 2.65908 8.27271 2.47726 8.04543 2.47726C7.81816 2.47726 7.59089 2.68181 7.59089 2.90908V3.65908H6.84089C6.59089 3.65908 6.40907 3.86363 6.40907 4.0909C6.40907 4.3409 6.61361 4.52272 6.84089 4.52272H7.59089V5.27272C7.59089 5.52272 7.79543 5.70454 8.02271 5.70454C8.24998 5.70454 8.45452 5.49999 8.45452 5.27272V4.52272H9.20452C9.45452 4.52272 9.63634 4.31817 9.63634 4.0909C9.65907 3.86363 9.45452 3.65908 9.22725 3.65908Z" fill="#C6FF00"/>
<path d="M9.61365 19.6136C8.72728 19.6136 7.97728 18.8864 7.97728 17.9773C7.97728 17.0909 8.70456 16.3409 9.61365 16.3409C10.5 16.3409 11.25 17.0682 11.25 17.9773C11.25 18.8864 10.5227 19.6136 9.61365 19.6136ZM9.61365 17.2273C9.20456 17.2273 8.86365 17.5682 8.86365 17.9773C8.86365 18.3864 9.20456 18.7273 9.61365 18.7273C10.0227 18.7273 10.3636 18.3864 10.3636 17.9773C10.3636 17.5682 10.0455 17.2273 9.61365 17.2273Z" fill="white"/>
<path d="M9.02271 10.2955C8.38634 10.2727 8.49998 9.31818 9.11362 9.43182C9.61362 9.52273 9.54543 10.2955 9.02271 10.2955Z" fill="white"/>
<path d="M4.27273 6.72728C3.63637 6.70455 3.75 5.75 4.36364 5.86364C4.86364 5.95455 4.77273 6.72728 4.27273 6.72728Z" fill="white"/>
<path d="M16.1591 11.4773C15.5227 11.4773 15.6364 10.5 16.25 10.6136C16.75 10.7045 16.6818 11.5 16.1591 11.4773Z" fill="white"/>
<path d="M15.7728 19.0227C15.1364 19.0227 15.25 18.0455 15.8637 18.1591C16.3637 18.25 16.2728 19.0455 15.7728 19.0227Z" fill="white"/>
</svg>
