<svg width="24" height="24" viewBox="0 0 24 24" fill="none" xmlns="http://www.w3.org/2000/svg">
<path d="M18.9917 17.2273H19.7341C19.9816 17.2273 20.1616 17.0227 20.1616 16.7955V2.43182C20.1616 2.18182 19.9591 2 19.7341 2H5.60543C4.07557 2 2.81569 3.27273 2.81569 4.81818V18.5909C2.81569 18.6591 2.83818 18.7045 2.83818 18.75C2.81569 18.8864 2.81569 19.0455 2.81569 19.1818C2.81569 20.7273 4.07557 22 5.60543 22H19.7566C20.0041 22 20.1841 21.7955 20.1841 21.5682C20.1841 21.3182 19.9816 21.1364 19.7566 21.1364H19.0142V17.2273H18.9917ZM19.3067 2.86364V16.3636H7.22528V2.86364H19.3067ZM5.60543 2.86364H6.34786V16.3636H5.60543C4.863 16.3636 4.18806 16.6591 3.67061 17.1364V4.81818C3.67061 3.75 4.54803 2.86364 5.60543 2.86364ZM3.67061 19.1818C3.67061 18.1136 4.52553 17.2273 5.60543 17.2273H18.1368V18.7273H6.77533C6.52785 18.7273 6.34786 18.9318 6.34786 19.1591C6.34786 19.3864 6.55035 19.5909 6.77533 19.5909H18.1368V21.0909H5.60543C4.54803 21.1364 3.67061 20.25 3.67061 19.1818Z" fill="white"/>
<path d="M17.2818 7.04547C18.0917 5.84092 18.2717 5.0682 17.8668 4.65911C17.4393 4.22729 16.7419 4.5682 16.5169 4.65911C16.1119 4.84092 15.6395 5.13638 15.077 5.54547C13.6146 4.84092 11.7923 5.11365 10.5774 6.34092C9.83498 7.09092 9.40752 8.11365 9.40752 9.18183C9.40752 9.77274 9.54251 10.3637 9.78999 10.8864C9.38502 11.4318 9.09255 11.9318 8.91257 12.3409C8.80008 12.5682 8.48511 13.2955 8.91257 13.7046C9.04756 13.8409 9.22754 13.9091 9.45252 13.9091C9.87998 13.9091 10.4874 13.6364 11.2749 13.1137C11.4098 13.0227 11.5673 12.9091 11.7023 12.8182C12.2423 13.0682 12.8047 13.2046 13.3897 13.2046C14.4021 13.2046 15.4145 12.8182 16.2019 12.0227C16.9443 11.2727 17.3718 10.25 17.3718 9.18183C17.3718 8.59092 17.2368 8.00002 16.9893 7.47729C17.0793 7.34092 17.1918 7.18183 17.2818 7.04547ZM17.1918 5.34092C17.1468 5.52274 16.9893 5.93183 16.4944 6.68183C16.4044 6.5682 16.3144 6.45456 16.2019 6.36365C16.0894 6.25002 15.9994 6.15911 15.8869 6.0682C16.5619 5.59092 16.9893 5.40911 17.1918 5.34092ZM11.1849 6.97729C11.7923 6.36365 12.5797 6.0682 13.3897 6.0682C14.1771 6.0682 14.987 6.36365 15.5945 6.97729C15.7294 7.11365 15.8644 7.27274 15.9544 7.43183C15.392 8.15911 14.6945 8.95456 13.9296 9.72729C13.1647 10.5 12.3773 11.2046 11.6573 11.7727C11.4998 11.6591 11.3423 11.5455 11.2074 11.4091C10.6224 10.8182 10.3074 10.0227 10.3074 9.18183C10.2849 8.36365 10.5999 7.5682 11.1849 6.97729ZM9.58751 13.0227C9.6325 12.8182 9.81249 12.3864 10.2849 11.6818C10.3749 11.7955 10.4649 11.9091 10.5774 12C10.6899 12.1137 10.7799 12.2046 10.8924 12.2955C10.1725 12.8409 9.76749 12.9773 9.58751 13.0227ZM16.4944 9.18183C16.4944 10.0227 16.1794 10.7955 15.5945 11.4091C14.987 12.0227 14.1996 12.3182 13.3897 12.3182C13.0972 12.3182 12.8047 12.2727 12.5122 12.1818C13.1647 11.6364 13.8621 11.0227 14.5371 10.3182C15.212 9.63638 15.8419 8.93183 16.3819 8.27274C16.4494 8.59092 16.4944 8.88638 16.4944 9.18183Z" fill="#C6FF00"/>
</svg>
