<svg width="70" height="23" viewBox="0 0 70 23" fill="none" xmlns="http://www.w3.org/2000/svg">
<path d="M9.02075 0.988572C9.91009 0.988572 10.6661 1.45643 11.0447 2.24023C11.4232 3.02404 11.3091 3.89039 10.7418 4.55641L6.33351 9.73369C5.90748 10.2335 5.28031 10.5219 4.61132 10.5219C3.72197 10.5219 2.96597 10.054 2.58741 9.27024C2.20997 8.48644 2.32298 7.62007 2.89026 6.95295L7.29969 1.77567C7.72572 1.27588 8.35289 0.988572 9.02075 0.988572ZM9.02075 0.00661153C8.05569 0.00661153 7.14036 0.424934 6.52448 1.14929L2.11618 6.32658C0.362352 8.38626 1.86531 11.5038 4.61244 11.5038H4.61357C5.57863 11.5038 6.49397 11.0855 7.10984 10.3612L11.5181 5.1839C13.272 3.12421 11.7679 0.00661153 9.02188 0.00661153H9.02075ZM7.65904 12.4847C8.54839 12.4847 9.30439 12.9526 9.68296 13.7364C10.0615 14.5202 9.94738 15.3865 9.3801 16.0526L4.97067 21.2309C4.54465 21.7307 3.91747 22.0191 3.24961 22.0191C2.36027 22.0191 1.60427 21.5513 1.22571 20.7675C0.847141 19.9837 0.961274 19.1173 1.52856 18.4502L5.93799 13.2718C6.36402 12.7709 6.99119 12.4847 7.65904 12.4847ZM7.65904 11.5028C6.69399 11.5028 5.77866 11.9211 5.16278 12.6443L0.753348 17.8227C-1.00048 19.8824 0.503604 23 3.24961 23C4.21467 23 5.13001 22.5817 5.74588 21.8573L10.1553 16.6789C11.9091 14.6192 10.4051 11.5028 7.65904 11.5028ZM18.6431 0.98747C19.5324 0.98747 20.2884 1.45533 20.667 2.23913C21.0444 3.02294 20.9314 3.88929 20.3641 4.55531L15.9547 9.73259C15.5287 10.2324 14.9015 10.5208 14.2325 10.5208C13.3432 10.5208 12.5872 10.0529 12.2086 9.26804C11.83 8.48423 11.9442 7.61896 12.5115 6.95185L16.9198 1.77458C17.3458 1.27479 17.973 0.98747 18.6408 0.98747H18.6419M18.6408 0.00550961C17.6758 0.00550961 16.7604 0.423832 16.1445 1.14819L11.7362 6.32548C9.98242 8.38516 11.4865 11.5028 14.2325 11.5028C15.1976 11.5028 16.1129 11.0844 16.7288 10.3601L21.1371 5.1828C22.8909 3.12311 21.3879 0.00550961 18.6408 0.00550961ZM17.2802 12.4836C18.1696 12.4836 18.9256 12.9515 19.3041 13.7353C19.6827 14.5191 19.5686 15.3854 19.0013 16.0515L14.5919 21.2298C14.1658 21.7296 13.5387 22.018 12.8708 22.018C11.9815 22.018 11.2255 21.5502 10.8469 20.7664C10.4683 19.9826 10.5825 19.1162 11.1498 18.4491L15.5592 13.2707C15.9852 12.7698 16.6124 12.4836 17.2802 12.4836ZM17.2802 11.5017C16.3152 11.5017 15.3998 11.92 14.784 12.6432L10.3745 17.8216C8.62072 19.8813 10.1248 22.9989 12.8708 22.9989C13.8359 22.9989 14.7512 22.5806 15.3671 21.8562L19.7765 16.6778C21.5303 14.6181 20.0262 11.5017 17.2802 11.5017ZM28.2643 0.986368C29.1536 0.986368 29.9096 1.45423 30.2882 2.23803C30.6667 3.02183 30.5526 3.8882 29.9853 4.55422L25.577 9.73149C25.151 10.2313 24.5238 10.5197 23.8548 10.5197C22.9655 10.5197 22.2095 10.0518 21.8309 9.26804C21.4524 8.48423 21.5665 7.61786 22.1338 6.95075L26.5421 1.77348C26.9681 1.27369 27.5953 0.986368 28.2631 0.986368H28.2643ZM28.2643 0.00440769H28.2631C27.2981 0.00440769 26.3827 0.42273 25.7669 1.14709L21.3586 6.32437C19.6047 8.38406 21.1077 11.5017 23.8548 11.5017H23.856C24.821 11.5017 25.7364 11.0833 26.3522 10.359L30.7617 5.18169C32.5155 3.12201 31.0125 0.00440769 28.2654 0.00440769H28.2643ZM26.9026 12.4825C27.7919 12.4825 28.5479 12.9504 28.9265 13.7342C29.3039 14.518 29.1909 15.3843 28.6236 16.0504L24.2142 21.2287C23.7882 21.7285 23.161 22.0169 22.4931 22.0169C21.6038 22.0169 20.8478 21.5491 20.4692 20.7653C20.0918 19.9815 20.2048 19.1151 20.7721 18.448L25.1815 13.2696C25.6075 12.7687 26.2347 12.4825 26.9026 12.4825ZM26.9026 11.5006C25.9375 11.5006 25.0222 11.9189 24.4063 12.6421L19.9969 17.8205C18.243 19.8802 19.7471 22.9978 22.4931 22.9978C23.4582 22.9978 24.3735 22.5795 24.9894 21.8551L29.3988 16.6767C31.1527 14.6171 29.6486 11.5006 26.9026 11.5006ZM37.8866 0.985266C38.7759 0.985266 39.5331 1.45313 39.9105 2.23693C40.2891 3.02073 40.1749 3.8871 39.6077 4.55311L35.1982 9.73039C34.7722 10.2313 34.145 10.5186 33.476 10.5186C32.5867 10.5186 31.8307 10.0507 31.4521 9.26694C31.0736 8.48313 31.1877 7.61676 31.755 6.94965L36.1644 1.77237C36.5904 1.27259 37.2176 0.985266 37.8855 0.985266M37.8855 0.00330577C36.9204 0.00330577 36.0051 0.421628 35.3892 1.14599L30.9809 6.32327C29.2271 8.38296 30.73 11.5006 33.4772 11.5006H33.4783C34.4433 11.5006 35.3587 11.0822 35.9746 10.3579L40.3829 5.18059C42.1367 3.12091 40.6337 0.00330577 37.8866 0.00330577H37.8855ZM36.5238 12.4814C37.4131 12.4814 38.1691 12.9493 38.5477 13.7331C38.9262 14.5169 38.8121 15.3832 38.2448 16.0493L33.8354 21.2276C33.4094 21.7274 32.7822 22.0159 32.1143 22.0159C31.225 22.0159 30.469 21.548 30.0904 20.7642C29.7119 19.9804 29.826 19.114 30.3933 18.4469L34.8027 13.2685C35.2287 12.7676 35.8559 12.4814 36.5238 12.4814ZM36.5238 11.4995C35.5587 11.4995 34.6434 11.9178 34.0275 12.641L29.6181 17.8194C27.8642 19.8791 29.3683 22.9967 32.1143 22.9967C33.0794 22.9967 33.9947 22.5784 34.6106 21.854L39.02 16.6756C40.7738 14.616 39.2698 11.4995 36.5238 11.4995ZM47.5078 0.984164C48.3971 0.984164 49.1531 1.45202 49.5317 2.23583C49.9091 3.01963 49.7961 3.886 49.2288 4.55201L44.8205 9.72929C44.3945 10.2291 43.7673 10.5175 43.0984 10.5175C42.209 10.5175 41.453 10.0496 41.0744 9.26583C40.6959 8.48203 40.81 7.61567 41.3773 6.94856L45.7856 1.77127C46.2116 1.27149 46.8388 0.984164 47.5067 0.984164H47.5078ZM47.5078 0.00220384H47.5067C46.5416 0.00220384 45.6263 0.420526 45.0104 1.14488L40.6021 6.32217C38.8483 8.38185 40.3512 11.4995 43.0984 11.4995H43.0995C44.0645 11.4995 44.9799 11.0811 45.5958 10.3568L50.0041 5.17949C51.7579 3.11981 50.2549 0.00220384 47.5078 0.00220384ZM46.1461 12.4803C47.0354 12.4803 47.7914 12.9482 48.17 13.732C48.5486 14.5158 48.4344 15.3821 47.8671 16.0481L43.4577 21.2265C43.0317 21.7263 42.4045 22.0147 41.7366 22.0147C40.8473 22.0147 40.0913 21.5469 39.7127 20.7631C39.3342 19.9793 39.4483 19.1129 40.0156 18.4458L44.425 13.2674C44.8511 12.7665 45.4782 12.4803 46.1461 12.4803ZM46.1461 11.4984C45.181 11.4984 44.2657 11.9167 43.6498 12.6399L39.2404 17.8183C37.4866 19.878 38.9906 22.9956 41.7366 22.9956C42.7017 22.9956 43.617 22.5773 44.2329 21.8529L48.6423 16.6745C50.395 14.6149 48.8921 11.4984 46.1461 11.4984ZM57.1301 0.983062C58.0194 0.983062 58.7755 1.45092 59.154 2.23472C59.5326 3.01853 59.4184 3.8849 58.8512 4.55091L54.4417 9.7282C54.0157 10.228 53.3885 10.5164 52.7196 10.5164C51.8302 10.5164 51.0731 10.0485 50.6956 9.26473C50.3171 8.48093 50.4312 7.61457 50.9985 6.94746L55.4079 1.77017C55.8339 1.27039 56.4611 0.983062 57.1278 0.983062H57.129M57.1278 0.00110192C56.1628 0.00110192 55.2475 0.419424 54.6316 1.14378L50.2233 6.32107C48.4694 8.38075 49.9724 11.4984 52.7196 11.4984C53.6846 11.4984 54.5999 11.08 55.2158 10.3557L59.6241 5.17839C61.378 3.1187 59.875 0.00110192 57.1278 0.00110192ZM55.7673 12.4792C56.6566 12.4792 57.4126 12.9471 57.7912 13.7309C58.1698 14.5147 58.0556 15.381 57.4883 16.047L53.0789 21.2254C52.6529 21.7252 52.0257 22.0136 51.3578 22.0136C50.4685 22.0136 49.7125 21.5458 49.3339 20.762C48.9554 19.9782 49.0695 19.1118 49.6368 18.4447L54.0462 13.2663C54.4723 12.7654 55.0994 12.4792 55.7673 12.4792ZM55.7673 11.4973C54.8022 11.4973 53.8869 11.9156 53.271 12.6388L48.8616 17.8172C47.1078 19.8769 48.6107 22.9945 51.3578 22.9945C52.3229 22.9945 53.2382 22.5762 53.8541 21.8518L58.2635 16.6734C60.0174 14.6138 58.5133 11.4973 55.7673 11.4973ZM66.7513 0.98196C67.6406 0.98196 68.3967 1.44982 68.7752 2.23362C69.1538 3.01743 69.0396 3.8838 68.4724 4.54981L64.0641 9.72709C63.638 10.228 63.0109 10.5153 62.3419 10.5153C61.4525 10.5153 60.6965 10.0474 60.318 9.26363C59.9394 8.47983 60.0535 7.61347 60.6208 6.94635L65.0291 1.76907C65.4551 1.26928 66.0823 0.98196 66.7502 0.98196H66.7513ZM66.7502 0C65.7851 0 64.8698 0.418322 64.2539 1.14268L59.8445 6.31997C58.0906 8.37965 59.5936 11.4973 62.3407 11.4973H62.3419C63.3069 11.4973 64.2223 11.0789 64.8382 10.3546L69.2465 5.17729C71.0003 3.1176 69.4973 0 66.7502 0ZM65.3896 12.4781C66.279 12.4781 67.0349 12.946 67.4135 13.7298C67.7921 14.5136 67.6779 15.3799 67.1107 16.0459L62.7012 21.2243C62.2752 21.7241 61.648 22.0125 60.9802 22.0125C60.0908 22.0125 59.3348 21.5447 58.9563 20.7609C58.5777 19.9771 58.6918 19.1107 59.2591 18.4436L63.6685 13.2652C64.0946 12.7643 64.7218 12.4781 65.3896 12.4781ZM65.3896 11.4962C64.4246 11.4962 63.5092 11.9145 62.8933 12.6377L58.4839 17.8161C56.7301 19.8758 58.2342 22.9934 60.9802 22.9934C61.9452 22.9934 62.8606 22.5751 63.4764 21.8507L67.8859 16.6723C69.6397 14.6126 68.1367 11.4962 65.3896 11.4962Z" fill="white"/>
</svg>
