<svg width="24" height="24" viewBox="0 0 24 24" fill="none" xmlns="http://www.w3.org/2000/svg">
<path d="M12 10.4722C11.0097 10.4722 10.0426 10.4166 9.12556 10.3068C8.15808 10.1909 7.42856 9.42805 7.42856 8.53225V6.65028C7.42856 5.75448 8.15808 4.9916 9.12556 4.87575C10.0426 4.76597 11.0097 4.71031 12 4.71031C12.9902 4.71031 13.9573 4.76597 14.8744 4.87575C15.8419 4.9916 16.5714 5.75448 16.5714 6.65028V8.53225C16.5714 9.42805 15.8419 10.1909 14.8744 10.3068C13.9573 10.4166 12.9902 10.4722 12 10.4722ZM12 5.67063C11.0549 5.67063 10.1335 5.72358 9.26122 5.82799C8.8137 5.88159 8.47618 6.23508 8.47618 6.65028V8.53225C8.47618 8.94745 8.8137 9.30094 9.26122 9.35454C10.1335 9.45895 11.0549 9.5119 12 9.5119C12.945 9.5119 13.8665 9.45895 14.7388 9.35454C15.1863 9.30094 15.5238 8.94745 15.5238 8.53225V6.65028C15.5238 6.23508 15.1863 5.88159 14.7388 5.82799C13.8665 5.72358 12.945 5.67063 12 5.67063Z" fill="#C6FF00"/>
<path d="M14.8571 19.4206H9.14286C8.85357 19.4206 8.61905 19.2056 8.61905 18.9405C8.61905 18.6753 8.85357 18.4603 9.14286 18.4603H14.8571C15.1464 18.4603 15.381 18.6753 15.381 18.9405C15.381 19.2056 15.1464 19.4206 14.8571 19.4206Z" fill="white"/>
<path d="M2.4762 16.5174C2.18692 16.5174 1.95239 16.3024 1.95239 16.0372V4.09921C1.95239 3.35308 2.61458 2.74603 3.42858 2.74603H7.33863C7.62792 2.74603 7.86244 2.96101 7.86244 3.22619C7.86244 3.49137 7.62792 3.70635 7.33863 3.70635H3.42858C3.19225 3.70635 3.00001 3.88257 3.00001 4.09921V16.0372C3.00001 16.3024 2.76549 16.5174 2.4762 16.5174Z" fill="#C6FF00"/>
<path d="M21.5238 16.5174C21.2345 16.5174 21 16.3024 21 16.0372V4.09921C21 3.88257 20.8078 3.70635 20.5714 3.70635H16.6614C16.3721 3.70635 16.1376 3.49137 16.1376 3.22619C16.1376 2.96101 16.3721 2.74603 16.6614 2.74603H20.5714C21.3854 2.74603 22.0476 3.35308 22.0476 4.09921V16.0372C22.0476 16.3024 21.8131 16.5174 21.5238 16.5174Z" fill="#C6FF00"/>
<path d="M22.4762 23C22.7655 23 23 22.785 23 22.5198V18.9405V18.504C23 16.073 20.8424 14.0952 18.1905 14.0952H18.0339L17.0265 12.2996C18.3609 11.1023 19.1905 9.43403 19.1905 7.59127C19.1905 3.95682 15.9649 1 12 1C8.03514 1 4.80952 3.95682 4.80952 7.59127C4.80952 9.43403 5.63914 11.1023 6.97352 12.2996L5.9661 14.0952H5.80952C3.15757 14.0952 1 16.073 1 18.504V18.9405V22.5198C1 22.785 1.23452 23 1.52381 23H22.4762ZM21.9512 18.4603H18.2381V15.0566C20.2745 15.08 21.9257 16.5936 21.9512 18.4603ZM6.80952 18.9405V15.4791C7.89538 16.0761 9.69043 16.8016 12 16.8016C12.9055 16.8016 15.0691 16.6609 17.1905 15.4836V18.9405V22.0397H6.80952V18.9405ZM5.85714 7.59127C5.85714 4.48635 8.61281 1.96032 12 1.96032C15.3872 1.96032 18.1429 4.48635 18.1429 7.59127C18.1429 9.2658 17.341 10.7717 16.0712 11.804C16.044 11.822 16.019 11.8421 15.9965 11.864C14.9214 12.7102 13.5248 13.2222 12 13.2222C10.4752 13.2222 9.07862 12.7102 8.00357 11.864C7.98105 11.8421 7.95605 11.8219 7.92862 11.8039C6.65891 10.7715 5.85714 9.26576 5.85714 7.59127ZM7.79524 12.9347C8.97852 13.7193 10.4312 14.1825 12 14.1825C13.5688 14.1825 15.0215 13.7193 16.2048 12.9347L17.0432 14.4291C15.0278 15.698 12.8683 15.8413 12 15.8413C9.615 15.8413 7.84724 14.9808 6.95757 14.4277L7.79524 12.9347ZM5.76191 15.0566V18.4603H2.04881C2.07433 16.5936 3.72548 15.08 5.76191 15.0566ZM2.04762 19.4206H5.76191V22.0397H2.04762V19.4206ZM21.9524 22.0397H18.2381V19.4206H21.9524V22.0397Z" fill="white"/>
</svg>
